<?xml version="1.0" encoding="utf-8"?><!DOCTYPE svg PUBLIC "-//W3C//DTD SVG 1.1//EN" "http://www.w3.org/Graphics/SVG/1.1/DTD/svg11.dtd"><svg width="186" height="177" viewBox="0 0 186 177" xmlns="http://www.w3.org/2000/svg" xmlns:xlink="http://www.w3.org/1999/xlink"><svg width="40" height="40" viewBox="0 0 40 40" id="checkbox" x="104" y="42"><path fill="#FFF" d="M0 0h40v40H0z"/></svg><svg id="checkbox-checked" width="40" height="40" viewBox="0 0 40 40" x="80" y="102"><style>.bst0{fill:#fff}.bst1{fill:url(#bSVGID_1_)}</style><path class="bst0" d="M0 0h40v40H0z"/><linearGradient id="bSVGID_1_" gradientUnits="userSpaceOnUse" x1="6.141" y1="20" x2="35.859" y2="20"><stop offset="0" stop-color="#00b0ea"/><stop offset="1" stop-color="#0e074f"/></linearGradient><path class="bst1" d="M35.9 11.5l-1.7-1.8L18 26.8 7.8 16l-1.7 1.8L18 30.3h.1z"/></svg><svg id="checkbox-checked-mob" width="35" height="35" viewBox="0 0 35 35" y="142"><style>.cst0{fill:#fff}.cst1{fill:url(#cSVGID_1_)}</style><path class="cst0" d="M0 0h35v35H0z"/><linearGradient id="cSVGID_1_" gradientUnits="userSpaceOnUse" x1="5.373" y1="19.5" x2="31.377" y2="19.5" gradientTransform="matrix(1 0 0 -1 0 37)"><stop offset="0" stop-color="#00b0ea"/><stop offset="1" stop-color="#0e074f"/></linearGradient><path class="cst1" d="M31.4 10.1l-1.5-1.6-14.1 14.9-9-9.4-1.5 1.6 10.5 10.9z"/></svg><svg width="40" height="40" viewBox="0 0 40 40" id="close-cross" y="102"><path fill="#FFF" fill-rule="evenodd" d="M20 16.25L3.75 0 0 3.75 16.25 20 0 36.25 3.75 40 20 23.75 36.25 40 40 36.25 23.75 20 40 3.75 36.25 0z"/></svg><svg width="40" height="40" viewBox="0 0 40 40" id="close-cross-blue" x="146"><path fill="#006FAD" d="M20 16.2L3.8 0 0 3.8 16.2 20 0 36.2 3.8 40 20 23.8 36.2 40l3.8-3.8L23.8 20 40 3.8 36.2 0 20 16.2z"/></svg><svg width="30" height="30" viewBox="0 0 30 30" id="close-cross-mob" x="65" y="142"><path fill="#FFF" fill-rule="evenodd" d="M15 12.188L2.812 0 0 2.813 12.188 15 0 27.188 2.813 30 15 17.812 27.188 30 30 27.187 17.812 15 30 2.812 27.187 0z"/></svg><svg width="30" height="30" viewBox="0 0 30 30" id="close-cross-mob-blue" x="35" y="142"><path fill="#006FAD" d="M15 12.2L2.8 0 0 2.8 12.2 15 0 27.2 2.8 30 15 17.8 27.2 30l2.8-2.8L17.8 15 30 2.8 27.2 0 15 12.2z"/></svg><svg width="40" height="40" viewBox="0 0 40 40" id="error" x="40" y="102"><g fill="none" fill-rule="evenodd"><rect width="39" height="39" x=".5" y=".5" stroke="#FFF" rx="8"/><text fill="#FFF" font-family="HelveticaNeue-Bold, Helvetica Neue" font-size="32" font-weight="bold"><tspan x="15" y="31">!</tspan></text></g></svg><svg width="25" height="25" viewBox="7.5 8.8 25 25" id="error-mob" x="146" y="114"><path fill="none" stroke="#FFF" d="M12.9 9.3h14.2c2.7 0 4.9 2.2 4.9 4.9v14.2c0 2.7-2.2 4.9-4.9 4.9H12.9c-2.7 0-4.9-2.2-4.9-4.9V14.2c0-2.7 2.2-4.9 4.9-4.9z"/><path fill="#FFF" d="M21.1 25.2v2.9h-3v-2.9h3zm-.9-1.2h-1.3l-.7-5.9v-3.6H21v3.6l-.8 5.9z"/></svg><svg width="42" height="42" viewBox="0 0 42 42" id="radio" x="104"><defs><linearGradient id="ja" x1="100%" x2="0%" y1="50%" y2="50%"><stop offset="0%" stop-color="#0E074F"/><stop offset="100%" stop-color="#00B0EA"/></linearGradient></defs><circle cx="246" cy="20" r="20" fill="#FFF" fill-rule="evenodd" stroke="url(#ja)" stroke-width="2" transform="translate(-225 1)"/></svg><svg width="37" height="37" viewBox="0 0 37 37" id="radio-mob" x="146" y="40"><defs><linearGradient id="ka" x1="100%" x2="0%" y1="50%" y2="50%"><stop offset="0%" stop-color="#0E074F"/><stop offset="100%" stop-color="#00B0EA"/></linearGradient></defs><circle cx="17.5" cy="63.5" r="17.5" fill="#FFF" fill-rule="evenodd" stroke="url(#ka)" transform="translate(1 -45)"/></svg><svg width="42" height="42" viewBox="0 0 42 42" id="radio-selected" x="52" y="51"><linearGradient id="la" gradientUnits="userSpaceOnUse" x1="-388.511" y1="311.086" x2="-389.511" y2="311.086" gradientTransform="matrix(40 0 0 -40 15581.438 12464.375)"><stop offset="0" stop-color="#0e074f"/><stop offset="1" stop-color="#00b0ea"/></linearGradient><circle fill="#FFF" stroke="url(#la)" stroke-width="2" cx="21" cy="21" r="20"/><linearGradient id="lb" gradientUnits="userSpaceOnUse" x1="11" y1="21" x2="31" y2="21"><stop offset="0" stop-color="#00b0ea"/><stop offset="1" stop-color="#0e074f"/></linearGradient><circle fill="url(#lb)" cx="21" cy="21" r="10"/></svg><svg width="37" height="37" viewBox="0 0 37 37" id="radio-selected-mob" x="146" y="77"><linearGradient id="ma" gradientUnits="userSpaceOnUse" x1="-389.513" y1="307.526" x2="-390.513" y2="307.526" gradientTransform="matrix(35 0 0 -35 13668.938 10781.875)"><stop offset="0" stop-color="#0e074f"/><stop offset="1" stop-color="#00b0ea"/></linearGradient><circle fill="#FFF" stroke="url(#ma)" cx="18.5" cy="18.5" r="17.5"/><linearGradient id="mb" gradientUnits="userSpaceOnUse" x1="9.75" y1="18.5" x2="27.25" y2="18.5"><stop offset="0" stop-color="#00b0ea"/><stop offset="1" stop-color="#0e074f"/></linearGradient><circle fill="url(#mb)" cx="18.5" cy="18.5" r="8.8"/></svg><svg width="52" height="51" viewBox="0 0 52 51" id="step-arrow" y="51"><g fill="none" fill-rule="evenodd" stroke="#FFF" transform="rotate(-180 26 25.5)"><rect width="50.133" height="50" x=".5" y=".5" rx="4"/><path stroke-linecap="square" stroke-width="2" d="M15.76 29.435l9.807-9.833 10.32 10.208"/></g></svg><svg width="52" height="51" viewBox="0 0 52 51" id="step-down-active" x="52"><defs><linearGradient id="oa" x1="50%" x2="50%" y1="0%" y2="100%"><stop offset="0%" stop-color="#0E064E"/><stop offset="100%" stop-color="#00B0EA"/></linearGradient></defs><g fill="none" fill-rule="evenodd" transform="rotate(-180 26 25.5)"><rect width="51.133" height="51" fill="#FFF" rx="4"/><path stroke="url(#oa)" stroke-linecap="square" stroke-width="2" d="M21.094 14.643l9.833 9.807-10.208 10.32" transform="rotate(-90 25.823 24.706)"/></g></svg><svg id="step-up-active" width="52" height="51" viewBox="0 0 52 51"><style>.pst0{fill:#fff}.pst1{fill:none;stroke:url(#pSVGID_1_);stroke-width:2;stroke-linecap:square}</style><path class="pst0" d="M48 51H4.9c-2.2 0-4-1.8-4-4V4c0-2.2 1.8-4 4-4H48c2.2 0 4 1.8 4 4v43c0 2.2-1.8 4-4 4z"/><linearGradient id="pSVGID_1_" gradientUnits="userSpaceOnUse" x1="6.341" y1="45.702" x2="6.341" y2="44.702" gradientTransform="matrix(0 -10.208 -20.127 0 935.955 86.646)"><stop offset="0" stop-color="#00b0ea"/><stop offset="1" stop-color="#0e064e"/></linearGradient><path class="pst1" d="M16.1 31l9.8-9.8 10.3 10.2"/></svg></svg>