<?xml version="1.0" encoding="utf-8"?><svg width="266" height="175" viewBox="0 0 266 175" xmlns="http://www.w3.org/2000/svg" xmlns:xlink="http://www.w3.org/1999/xlink"><svg width="19" height="10" fill="none" viewBox="0 0 19 10" id="arrow-down" x="142" y="75" xmlns="http://www.w3.org/2000/svg"><path fill-rule="evenodd" clip-rule="evenodd" d="M9.154 6.553L16.82 0l1.487 1.27-9.154 7.824L0 1.271 1.487 0l7.667 6.553z" fill="#939598"/></svg><svg width="19" height="10" fill="none" viewBox="0 0 19 10" id="arrow-up" x="123" y="75" xmlns="http://www.w3.org/2000/svg"><path fill-rule="evenodd" clip-rule="evenodd" d="M9.154 2.541l7.667 6.553 1.487-1.27L9.154 0 0 7.823l1.487 1.271 7.667-6.553z" fill="#fff"/></svg><svg width="82" height="76" fill="none" viewBox="0 0 82 76" id="article-listen" x="184" xmlns="http://www.w3.org/2000/svg"><path d="M0 0h67.65L82 13.427V76H0V0z" fill="#8DB0C7" fill-opacity=".8"/><path fill-rule="evenodd" clip-rule="evenodd" d="M15 38.33c0-14.43 11.584-26.17 25.825-26.17S66.651 23.9 66.651 38.33c0 14.43-11.584 26.17-25.825 26.17C26.583 64.5 15 52.76 15 38.33zm2.152 0c0 13.227 10.62 23.989 23.673 23.989 13.054 0 23.674-10.762 23.674-23.99 0-13.227-10.62-23.988-23.673-23.988-13.054 0-23.674 10.761-23.674 23.989zm24.73 11.043V47.588l.259-.035c3.99-.544 7.114-4.277 7.114-8.844v-2.003h-1.507v2.003c0 3.956-2.94 7.21-6.62 7.21-3.681 0-6.62-3.254-6.62-7.21v-2.003H33v2.003c0 4.567 3.124 8.3 7.114 8.844l.26.035V49.373H37.214v1.703h7.826v-1.703H41.881zm3.16-18.724c0-2.404-1.778-4.306-3.914-4.306-2.137 0-3.914 1.902-3.914 4.306v8.06c0 2.404 1.777 4.306 3.914 4.306 2.136 0 3.913-1.902 3.913-4.306v-8.06zm-6.32 0c0-1.412 1.052-2.603 2.406-2.603s2.407 1.19 2.407 2.603v8.06c0 1.412-1.053 2.603-2.407 2.603s-2.407-1.19-2.407-2.603v-8.06z" fill="#fff"/><path d="M41.881 49.373h-.15v.15h.15v-.15zm0-1.785l-.02-.148-.13.017v.131h.15zm.26-.035l-.02-.149.02.149zm7.114-10.847h.15v-.15h-.15v.15zm-1.507 0v-.15h-.15v.15h.15zm-13.24 0h.15v-.15h-.15v.15zm-1.507 0v-.15h-.15v.15H33zm7.114 10.847l.02-.149-.02.149zm.26.035h.15v-.13l-.13-.018-.02.148zm0 1.785v.15h.15v-.15h-.15zm-3.16 0v-.15h-.15v.15h.15zm0 1.703h-.15v.15h.15v-.15zm7.826 0v.15h.15v-.15h-.15zm0-1.703h.15v-.15h-.15v.15zM40.826 12.01C26.5 12.01 14.85 23.82 14.85 38.33h.3c0-14.349 11.52-26.02 25.675-26.02v-.3zM66.8 38.33c0-14.51-11.65-26.32-25.976-26.32v.3c14.157 0 25.676 11.671 25.676 26.02h.3zM40.825 64.65c14.326 0 25.976-11.81 25.976-26.32h-.3c0 14.349-11.52 26.02-25.676 26.02v.3zM14.85 38.33c0 14.51 11.65 26.32 25.975 26.32v-.3c-14.156 0-25.675-11.671-25.675-26.02h-.3zm25.975 23.839c-12.968 0-23.523-10.692-23.523-23.84h-.3c0 13.31 10.685 24.14 23.823 24.14v-.3zm23.524-23.84c0 13.148-10.555 23.84-23.524 23.84v.3c13.139 0 23.824-10.83 23.824-24.14h-.3zM40.825 14.492c12.97 0 23.524 10.692 23.524 23.839h.3c0-13.309-10.685-24.14-23.824-24.14v.3zM17.302 38.33c0-13.147 10.555-23.84 23.523-23.84v-.3c-13.138 0-23.823 10.831-23.823 24.14h.3zm24.43 10.743v.3h.3v-.3h-.3zm0-1.223v1.223h.3V47.85h-.3zm0-.262v.262h.3v-.262h-.3zm.388-.184l-.26.036.041.297.26-.035-.04-.298zm6.985-8.695c0 4.501-3.077 8.163-6.985 8.695l.04.297c4.074-.555 7.245-4.36 7.245-8.992h-.3zm0-2.003v2.003h.3v-2.003h-.3zm-1.357.15h1.507v-.3h-1.507v.3zm.15 1.853v-2.003h-.3v2.003h.3zm-6.77 7.36c3.776 0 6.77-3.334 6.77-7.36h-.3c0 3.886-2.885 7.06-6.47 7.06v.3zm-6.77-7.36c0 4.026 2.994 7.36 6.77 7.36v-.3c-3.586 0-6.47-3.174-6.47-7.06h-.3zm0-2.003v2.003h.3v-2.003h-.3zm-1.357.15h1.507v-.3H33v.3zm.15 1.853v-2.003h-.3v2.003h.3zm6.984 8.695c-3.907-.532-6.984-4.194-6.984-8.695h-.3c0 4.633 3.17 8.437 7.244 8.992l.04-.297zm.26.036l-.26-.036-.04.297.26.036.04-.297zm.13.41v-.262h-.3v.262h.3zm0 1.223V47.85h-.3v1.223h.3zm0 .3v-.3h-.3v.3h.3zm-.45.15h.3v-.3h-.3v.3zm-2.86 0h2.86v-.3h-2.86v.3zm.15 1.553v-1.703h-.3v1.703h.3zm7.676-.15h-7.827v.3h7.827v-.3zm-.15-1.553v1.703h.3v-1.703h-.3zm-2.71.15h2.86v-.3h-2.86v.3zm-.3 0h.3v-.3h-.3v.3zm-.753-23.03c2.042 0 3.763 1.822 3.763 4.156h.3c0-2.475-1.832-4.456-4.063-4.456v.3zm-3.764 4.156c0-2.334 1.722-4.156 3.764-4.156v-.3c-2.232 0-4.064 1.981-4.064 4.456h.3zm0 8.06v-8.06h-.3v8.06h.3zm3.764 4.156c-2.042 0-3.764-1.822-3.764-4.156h-.3c0 2.474 1.832 4.456 4.064 4.456v-.3zm3.763-4.156c0 2.334-1.721 4.156-3.763 4.156v.3c2.231 0 4.063-1.982 4.063-4.456h-.3zm0-8.06v8.06h.3v-8.06h-.3zm-3.763-2.753c-1.45 0-2.557 1.271-2.557 2.753h.3c0-1.343.999-2.453 2.257-2.453v-.3zm2.556 2.753c0-1.482-1.107-2.753-2.556-2.753v.3c1.258 0 2.257 1.11 2.257 2.453h.3zm0 8.06v-8.06h-.3v8.06h.3zm-2.556 2.753c1.45 0 2.556-1.271 2.556-2.753h-.3c0 1.343-.998 2.453-2.256 2.453v.3zM38.57 38.71c0 1.482 1.107 2.753 2.557 2.753v-.3c-1.258 0-2.257-1.11-2.257-2.453h-.3zm0-8.06v8.06h.3v-8.06h-.3z" fill="#fff"/></svg><svg width="82" height="75" fill="none" viewBox="0 0 82 75" id="article-read" x="102" xmlns="http://www.w3.org/2000/svg"><path d="M0 0h67.65L82 13.25V75H0V0z" fill="#8DB0C7" fill-opacity=".8"/><path fill-rule="evenodd" clip-rule="evenodd" d="M15 37.825C15 23.585 26.584 12 40.825 12c14.24 0 25.825 11.585 25.825 25.825 0 14.24-11.584 25.825-25.825 25.825C26.585 63.65 15 52.065 15 37.825zm2.152 0c0 13.053 10.62 23.673 23.673 23.673 13.053 0 23.673-10.62 23.673-23.673 0-13.053-10.62-23.673-23.673-23.673-13.053 0-23.673 10.62-23.673 23.673zM28.999 32h24v-2.5h-24V32zm24 8h-24v-2.5h24V40zm-24 8h24v-2.5h-24V48z" fill="#fff"/><path d="M52.999 32v.1h.1V32h-.1zm-24 0h-.1v.1h.1V32zm24-2.5h.1v-.1h-.1v.1zm-24 0v-.1h-.1v.1h.1zM29 40h-.1v.1h.1V40zm24 0v.1h.1V40h-.1zm-24-2.5v-.1h-.1v.1h.1zm24 0h.1v-.1h-.1v.1zm0 10.5v.1h.1V48h-.1zm-24 0h-.1v.1h.1V48zm24-2.5h.1v-.1h-.1v.1zm-24 0v-.1h-.1v.1h.1zm11.826-33.6C26.529 11.9 14.9 23.53 14.9 37.825h.2C15.1 23.641 26.64 12.1 40.825 12.1v-.2zM66.75 37.825C66.75 23.53 55.121 11.9 40.825 11.9v.2c14.185 0 25.725 11.54 25.725 25.725h.2zM40.825 63.75c14.296 0 25.925-11.63 25.925-25.925h-.2c0 14.184-11.54 25.725-25.725 25.725v.2zM14.9 37.825c0 14.295 11.629 25.925 25.925 25.925v-.2C26.639 63.55 15.1 52.01 15.1 37.825h-.2zm25.925 23.573c-12.998 0-23.573-10.575-23.573-23.573h-.2c0 13.109 10.664 23.773 23.773 23.773v-.2zm23.573-23.573c0 12.998-10.575 23.573-23.573 23.573v.2c13.109 0 23.773-10.664 23.773-23.773h-.2zM40.825 14.252c12.998 0 23.573 10.575 23.573 23.573h.2c0-13.109-10.664-23.773-23.773-23.773v.2zM17.252 37.825c0-12.998 10.575-23.573 23.573-23.573v-.2c-13.109 0-23.773 10.664-23.773 23.773h.2zM52.999 31.9h-24v.2h24v-.2zm-.1-2.4V32h.2v-2.5h-.2zm-23.9.1h24v-.2h-24v.2zm.1 2.4v-2.5h-.2V32h.2zm-.1 8.1h24v-.2h-24v.2zm-.1-2.6V40h.2v-2.5h-.2zm24.1-.1h-24v.2h24v-.2zm.1 2.6v-2.5h-.2V40h.2zm-.1 7.9h-24v.2h24v-.2zm-.1-2.4V48h.2v-2.5h-.2zm-23.9.1h24v-.2h-24v.2zm.1 2.4v-2.5h-.2V48h.2z" fill="#fff"/></svg><svg width="82" height="75" fill="none" viewBox="0 0 82 75" id="article-watch" y="100" xmlns="http://www.w3.org/2000/svg"><path d="M0 0h67.65L82 13.25V75H0V0z" fill="#8DB0C7" fill-opacity=".8"/><path fill-rule="evenodd" clip-rule="evenodd" d="M15 37.825C15 23.585 26.584 12 40.825 12s25.826 11.585 25.826 25.825c0 14.24-11.584 25.826-25.825 25.826C26.583 63.65 15 52.065 15 37.825zm2.152 0c0 13.054 10.62 23.674 23.673 23.674 13.054 0 23.674-10.62 23.674-23.674 0-13.053-10.62-23.673-23.673-23.673-13.054 0-23.674 10.62-23.674 23.673zm18.875-10.589l15.065 9.685a1.078 1.078 0 010 1.81l-15.065 9.684a1.071 1.071 0 01-1.097.04 1.075 1.075 0 01-.56-.945V28.141a1.075 1.075 0 011.657-.905zm12.493 10.59L36.52 30.111V45.54l11.999-7.714z" fill="#fff"/></svg><svg width="102" height="50" viewBox="0 0 102 50" id="brandmark-desktop" xmlns="http://www.w3.org/2000/svg"><path fill="none" d="M-1-1h104v52H-1z"/><g><text stroke="#000" transform="matrix(1.57645 0 0 1.68046 -51.19 -78.346)" font-weight="bold" font-family="Arvo, sans-serif" font-size="24" y="70.276" x="32.481" stroke-width="0" fill="#fff">BINO</text></g></svg><svg width="102" height="50" viewBox="0 0 102 50" id="brandmark-mobile" y="50" xmlns="http://www.w3.org/2000/svg"><path fill="none" d="M-1-1h104v52H-1z"/><g><text stroke="#000" transform="matrix(1.57645 0 0 1.68046 -51.19 -78.346)" font-weight="bold" font-family="Arvo, sans-serif" font-size="24" y="70.276" x="32.481" stroke-width="0" fill="#fff">BINO</text></g></svg><svg width="5" height="9" fill="none" viewBox="0 0 5 9" id="breadcrumb" x="102" y="91" xmlns="http://www.w3.org/2000/svg"><path fill-rule="evenodd" clip-rule="evenodd" d="M3.603 4.5L0 .73.699 0 5 4.5.699 9 0 8.27 3.603 4.5z" fill="#383839"/></svg><svg width="5" height="9" fill="none" viewBox="0 0 5 9" id="breadcrumb-light" x="177" y="75" xmlns="http://www.w3.org/2000/svg"><path fill-rule="evenodd" clip-rule="evenodd" d="M3.603 4.5L0 .73.699 0 5 4.5.699 9 0 8.27 3.603 4.5z" fill="#B0B2B5"/></svg><svg width="5" height="9" fill="none" viewBox="0 0 5 9" id="breadcrumb-red" x="172" y="75" xmlns="http://www.w3.org/2000/svg"><path fill-rule="evenodd" clip-rule="evenodd" d="M3.603 4.5L0 .73.699 0 5 4.5.699 9 0 8.27 3.603 4.5z" fill="#E04646"/></svg><svg width="5" height="5" fill="none" viewBox="0 0 5 5" id="bullet" x="224" y="88" xmlns="http://www.w3.org/2000/svg"><path fill="#383839" d="M0 0h5v5H0z"/></svg><svg width="8" height="16" fill="none" viewBox="0 0 8 16" id="chevron-red" x="123" y="120" xmlns="http://www.w3.org/2000/svg"><path d="M0 1.506l5.92 6.282L0 14.07l1.118 1.218L8 7.788 1.118.288 0 1.506z" fill="#E04646"/></svg><svg width="21" height="16" fill="none" viewBox="0 0 21 16" id="chisel" x="102" y="75" xmlns="http://www.w3.org/2000/svg"><path d="M20.083 8L12.878.288H0L6.978 8 0 15.653h12.822L20.083 8z" fill="#E04646"/></svg><svg width="15" height="11" fill="none" viewBox="0 0 15 11" id="chisel-small" x="249" y="76" xmlns="http://www.w3.org/2000/svg"><path d="M15 5.521L9.619 0H0l5.212 5.521L0 11h9.576L15 5.521z" fill="#E04646"/></svg><svg width="26" height="26" fill="none" viewBox="0 0 26 26" id="close" x="184" y="123" xmlns="http://www.w3.org/2000/svg"><path d="M25 2.427L23.586 1 13 11.683 2.414 1 1 2.427 11.586 13.11 1 23.792l1.414 1.427L13 14.537l10.586 10.682L25 23.792 14.414 13.11 25 2.427z" fill="#fff" stroke="#fff"/></svg><svg width="20" height="20" fill="none" viewBox="0 0 20 20" id="contact" x="122" y="100" xmlns="http://www.w3.org/2000/svg"><path fill-rule="evenodd" clip-rule="evenodd" d="M20 10c0 5.523-4.477 10-10 10S0 15.523 0 10 4.477 0 10 0s10 4.477 10 10zm-9.812 1.356c-1.556 0-4.671.78-4.671 2.335v1.168h9.342v-1.168c0-1.556-3.115-2.335-4.671-2.335zm2.335-3.503a2.337 2.337 0 01-4.67 0 2.335 2.335 0 114.67 0z" fill="#fff"/></svg><svg width="20" height="20" fill="none" viewBox="0 0 20 20" id="direction" x="142" y="100" xmlns="http://www.w3.org/2000/svg"><circle cx="10" cy="10" r="10" fill="#fff"/><path d="M14.783 5.042a.393.393 0 00-.352 0L4.217 10.149a.393.393 0 00.105.737l4.054.738.737 4.053a.393.393 0 00.738.106l5.107-10.214a.393.393 0 00-.175-.527z" fill="#E04646"/></svg><svg width="15" height="19" fill="none" viewBox="0 0 15 19" id="document" x="162" y="100" xmlns="http://www.w3.org/2000/svg"><path d="M4.15 13.32v-1.665h4.98v1.665H4.15zM4.15 8.325V9.99h6.64V8.325H4.15z" fill="#fff"/><path fill-rule="evenodd" clip-rule="evenodd" d="M1.66 0h8.644l4.637 4.65v12c0 .92-.743 1.665-1.66 1.665H1.66C.742 18.315 0 17.569 0 16.65V1.665C0 .745.743 0 1.66 0zM8.3 1.665H1.66V16.65h11.62V6.66H9.96c-.916 0-1.66-.746-1.66-1.665v-3.33zm1.66.345v2.985h2.977L9.96 2.01z" fill="#fff"/></svg><svg width="40" height="19" fill="none" viewBox="0 0 40 19" id="dots-arrow" x="184" y="76" xmlns="http://www.w3.org/2000/svg"><path fill-rule="evenodd" clip-rule="evenodd" d="M37.459 9.442l-6.553-7.667 1.27-1.487L40 9.442l-7.823 9.154-1.271-1.487 6.553-7.667z" fill="#fff"/><circle cx="21.5" cy="9.788" r="1.5" transform="rotate(-90 21.5 9.788)" fill="#fff"/><circle cx="11.5" cy="9.788" r="1.5" transform="rotate(-90 11.5 9.788)" fill="#fff"/><circle cx="1.5" cy="9.788" r="1.5" transform="rotate(-90 1.5 9.788)" fill="#fff"/></svg><svg width="25" height="12" fill="none" viewBox="0 0 25 12" id="dots-arrow-small" x="224" y="76" xmlns="http://www.w3.org/2000/svg"><path fill-rule="evenodd" clip-rule="evenodd" d="M23.136 5.654L19.09.918 19.874 0l4.832 5.654-4.832 5.654-.785-.919 4.047-4.735z" fill="#fff"/><circle cx="13.279" cy="5.868" r=".926" transform="rotate(-90 13.28 5.868)" fill="#fff"/><circle cx="7.103" cy="5.868" r=".926" transform="rotate(-90 7.103 5.868)" fill="#fff"/><circle cx=".926" cy="5.868" r=".926" transform="rotate(-90 .926 5.868)" fill="#fff"/></svg><svg width="26" height="21" fill="none" viewBox="0 0 26 21" id="hamburger" x="214" y="95" xmlns="http://www.w3.org/2000/svg"><path stroke="#fff" stroke-width="2" stroke-linecap="round" stroke-linejoin="round" d="M1 1h24M1 10.5h24M1 20h24"/></svg><svg width="21" height="22" fill="none" viewBox="0 0 21 22" id="instagram" x="206" y="149" xmlns="http://www.w3.org/2000/svg"><path d="M10.006 5.16c-2.839 0-5.128 2.426-5.128 5.432 0 3.007 2.29 5.432 5.128 5.432 2.839 0 5.129-2.425 5.129-5.432 0-3.006-2.29-5.431-5.129-5.431zm0 8.963c-1.834 0-3.334-1.583-3.334-3.53 0-1.948 1.495-3.532 3.334-3.532s3.334 1.584 3.334 3.531c0 1.948-1.5 3.531-3.334 3.531zm6.535-9.184c0 .704-.536 1.267-1.197 1.267-.665 0-1.196-.568-1.196-1.267 0-.7.536-1.267 1.196-1.267.661 0 1.197.567 1.197 1.267zm3.396 1.285c-.076-1.697-.442-3.2-1.615-4.438C17.152.547 15.732.16 14.13.074c-1.651-.099-6.601-.099-8.253 0-1.598.08-3.017.468-4.19 1.707C.511 3.019.15 4.523.07 6.22c-.093 1.749-.093 6.991 0 8.74.076 1.697.442 3.2 1.616 4.439 1.174 1.238 2.589 1.626 4.191 1.711 1.652.1 6.602.1 8.253 0 1.603-.08 3.022-.468 4.192-1.711 1.169-1.239 1.535-2.742 1.615-4.439.094-1.749.094-6.987 0-8.736zm-2.133 10.613c-.348.926-1.022 1.64-1.902 2.014-1.316.553-4.44.425-5.896.425-1.455 0-4.584.123-5.896-.425-.875-.37-1.55-1.083-1.902-2.014-.522-1.395-.401-4.704-.401-6.245 0-1.54-.116-4.854.401-6.244.348-.927 1.022-1.64 1.902-2.014 1.317-.553 4.441-.425 5.896-.425s4.584-.123 5.896.425c.875.369 1.55 1.083 1.902 2.014.522 1.394.402 4.703.402 6.244 0 1.541.12 4.855-.402 6.245z" fill="#fff"/></svg><svg width="20" height="20" fill="none" viewBox="0 0 20 20" id="linkedIn-circle" x="82" y="100" xmlns="http://www.w3.org/2000/svg"><path d="M10 0C4.478 0 0 4.478 0 10s4.478 10 10 10 10-4.478 10-10S15.522 0 10 0zM7.094 15.117H4.66V7.79h2.435v7.327zM5.876 6.79h-.015c-.818 0-1.346-.563-1.346-1.266 0-.72.545-1.266 1.378-1.266.833 0 1.345.547 1.361 1.266 0 .703-.528 1.266-1.378 1.266zm10 8.327H13.44v-3.92c0-.985-.353-1.657-1.234-1.657-.673 0-1.074.454-1.25.891-.064.157-.08.375-.08.594v4.092H8.442s.032-6.64 0-7.327h2.435v1.038c.324-.5.903-1.21 2.195-1.21 1.602 0 2.804 1.047 2.804 3.298v4.201z" fill="#fff"/></svg><svg width="22" height="22" fill="none" viewBox="0 0 22 22" id="linkedin" x="184" y="149" xmlns="http://www.w3.org/2000/svg"><path d="M19.671 0H1.508A1.52 1.52 0 000 1.527v18.13a1.52 1.52 0 001.508 1.528h18.163c.833 0 1.514-.686 1.514-1.528V1.527C21.185.686 20.504 0 19.67 0zM6.403 18.158h-3.14V8.048h3.144v10.11h-.004zm-1.57-11.49a1.821 1.821 0 010-3.642c1.002 0 1.82.818 1.82 1.82 0 1.008-.813 1.821-1.82 1.821zm13.34 11.49h-3.14V13.24c0-1.172-.024-2.68-1.632-2.68-1.636 0-1.887 1.276-1.887 2.595v5.003h-3.14V8.048h3.013V9.43h.042c.421-.794 1.447-1.631 2.975-1.631 3.177 0 3.768 2.094 3.768 4.818v5.542z" fill="#fff"/></svg><svg width="13" height="17" fill="none" viewBox="0 0 13 17" id="listen" x="110" y="120" xmlns="http://www.w3.org/2000/svg"><path fill-rule="evenodd" clip-rule="evenodd" d="M6.263 0c1.73 0 3.132 1.384 3.132 3.09V8.5c0 1.707-1.402 3.09-3.132 3.09-1.73 0-3.131-1.383-3.131-3.09V3.09C3.132 1.385 4.534 0 6.263 0zM4.697 3.09c0-.853.701-1.545 1.566-1.545.865 0 1.566.692 1.566 1.546V8.5c0 .854-.701 1.546-1.566 1.546A1.556 1.556 0 014.697 8.5V3.09z" fill="#7E7E7E"/><path d="M7.046 14.634v.82h2.349V17H3.132v-1.546H5.48v-.82C2.39 14.254 0 11.652 0 8.5V6.955h1.566V8.5c0 2.56 2.103 4.636 4.697 4.636S10.96 11.061 10.96 8.5V6.955h1.566V8.5c0 3.152-2.39 5.754-5.48 6.134z" fill="#7E7E7E"/></svg><svg width="13" height="18" fill="none" viewBox="0 0 13 18" id="location" x="82" y="120" xmlns="http://www.w3.org/2000/svg"><path d="M6.3 0C2.826 0 0 2.692 0 6c0 .993.26 1.978.756 2.851l5.2 8.956c.069.119.2.193.344.193a.397.397 0 00.345-.193l5.2-8.959c.494-.87.755-1.855.755-2.848 0-3.308-2.826-6-6.3-6zm0 9C4.563 9 3.15 7.654 3.15 6S4.563 3 6.3 3c1.737 0 3.15 1.346 3.15 3S8.037 9 6.3 9z" fill="#fff"/></svg><svg width="15" height="15" fill="none" viewBox="0 0 15 15" id="mail" x="151" y="120" xmlns="http://www.w3.org/2000/svg"><g clip-path="url(#baclip0)" fill="#fff"><path d="M9.943 9.233L15 12.43V5.901L9.943 9.233zM0 5.901v6.53l5.057-3.198L0 5.901zM14.063 4H.938a.926.926 0 00-.91.798L7.5 9.72l7.472-4.923A.926.926 0 0014.063 4zM9.084 9.8l-1.326.873a.468.468 0 01-.516 0l-1.326-.875L.03 13.521a.924.924 0 00.908.791h13.125a.924.924 0 00.907-.79L9.084 9.798z"/></g><defs><clipPath id="baclip0"><path fill="#fff" d="M0 0h15v14.312H0z"/></clipPath></defs></svg><svg width="21" height="21" fill="none" viewBox="0 0 21 21" id="map-view" x="227" y="149" xmlns="http://www.w3.org/2000/svg"><path d="M10.3 0C6.826 0 4 2.692 4 6c0 .993.26 1.978.756 2.851l5.2 8.956c.069.119.2.193.344.193a.397.397 0 00.345-.193l5.2-8.959c.494-.87.755-1.855.755-2.848 0-3.308-2.826-6-6.3-6zm0 9C8.563 9 7.15 7.654 7.15 6s1.413-3 3.15-3c1.737 0 3.15 1.346 3.15 3s-1.413 3-3.15 3z" fill="#fff"/><path d="M.655 20.5l2.727-10h14.236l2.727 10H.655z" stroke="#fff"/></svg><svg width="11" height="14" fill="none" viewBox="0 0 11 14" id="mobile-listen" x="82" y="138" xmlns="http://www.w3.org/2000/svg"><path fill-rule="evenodd" clip-rule="evenodd" d="M5.158 0c1.424 0 2.579 1.14 2.579 2.545V7c0 1.406-1.155 2.545-2.58 2.545C3.735 9.545 2.58 8.405 2.58 7V2.545C2.579 1.14 3.734 0 5.158 0zm-1.29 2.545c0-.702.578-1.272 1.29-1.272.712 0 1.29.57 1.29 1.272V7c0 .703-.578 1.273-1.29 1.273-.712 0-1.29-.57-1.29-1.273V2.545z" fill="#7E7E7E"/><path d="M5.803 12.052v.675h1.934V14H2.579v-1.273h1.934v-.675C1.97 11.738 0 9.596 0 7V5.727h1.29V7c0 2.109 1.731 3.818 3.868 3.818 2.136 0 3.868-1.71 3.868-3.818V5.727h1.29V7c0 2.596-1.969 4.738-4.513 5.052z" fill="#7E7E7E"/></svg><svg width="11" height="10" fill="none" viewBox="0 0 11 10" id="mobile-read" x="161" y="75" xmlns="http://www.w3.org/2000/svg"><g clip-path="url(#bdclip0)" fill-rule="evenodd" clip-rule="evenodd" fill="#707070"><path d="M10.323 2.075H0V1h10.323v1.075zM10.323 5.538H0V4.462h10.323v1.076zM10.323 9H0V7.925h10.323V9z"/></g><defs><clipPath id="bdclip0"><path fill="#fff" d="M0 0h10.323v10H0z"/></clipPath></defs></svg><svg width="9" height="11" fill="none" viewBox="0 0 9 11" id="mobile-watch" x="174" y="120" xmlns="http://www.w3.org/2000/svg"><path d="M8.547 5.038L.847.088A.549.549 0 000 .55v9.9a.55.55 0 00.848.462l7.7-4.95a.55.55 0 000-.924zM1.1 9.442V1.558L7.233 5.5 1.1 9.442z" fill="#707070"/></svg><svg width="8" height="15" fill="none" viewBox="0 0 8 15" id="next" x="131" y="120" xmlns="http://www.w3.org/2000/svg"><path d="M0 1.218L5.92 7.5 0 13.782 1.118 15 8 7.5 1.118 0 0 1.218z" fill="#E04646"/></svg><svg width="20" height="20" fill="none" viewBox="0 0 20 20" id="pdf" x="102" y="100" xmlns="http://www.w3.org/2000/svg"><path fill-rule="evenodd" clip-rule="evenodd" d="M10 20c5.523 0 10-4.477 10-10S15.523 0 10 0 0 4.477 0 10s4.477 10 10 10zM2.786 7.124v5.98h1.148V10.87h.358c.807 0 1.193-.036 1.534-.125.708-.207 1.165-.87 1.165-1.722 0-.834-.421-1.497-1.112-1.721-.403-.135-.816-.18-1.694-.18H2.786zm1.148 2.77V8.1h.421c.592 0 .834.036 1.058.143.251.135.404.413.404.771 0 .377-.18.673-.476.78-.224.08-.376.099-1.04.099h-.367zm3.922-2.77v5.98h1.282c1.255 0 1.667-.072 2.187-.368.79-.448 1.282-1.461 1.282-2.627 0-1.22-.538-2.232-1.425-2.68-.43-.216-.977-.305-1.865-.305H7.856zm1.147 5.002V8.101h.251c.915 0 1.157.045 1.498.287.439.313.68.923.68 1.712 0 .79-.241 1.453-.645 1.748-.296.215-.591.278-1.255.278h-.529zM14.8 8.101v1.416h2.376v.978H14.8v2.609h-1.147v-5.98h3.756V8.1H14.8z" fill="#fff"/></svg><svg width="15" height="17" fill="none" viewBox="0 0 15 17" id="phone" x="95" y="120" xmlns="http://www.w3.org/2000/svg"><g clip-path="url(#bhclip0)" fill="#fff"><path d="M14.613 13.067l-1.864-1.864c-.497-.498-1.366-.498-1.864 0l-.311.31 3.729 3.73.31-.311a1.317 1.317 0 000-1.865zM9.935 12.118a.989.989 0 01-1.31-.068L4.938 8.362a.99.99 0 01-.068-1.31l-3.72-3.72c-1.6 1.865-1.538 4.676.228 6.442l5.833 5.836a4.718 4.718 0 006.443.228l-3.72-3.72zM5.786 4.238L3.922 2.373c-.497-.497-1.366-.498-1.864 0l-.311.311 3.729 3.729.31-.31a1.317 1.317 0 000-1.865z"/></g><defs><clipPath id="bhclip0"><path fill="#fff" d="M0 0h15v17H0z"/></clipPath></defs></svg><svg width="14" height="20" fill="none" viewBox="0 0 14 20" id="podcast" x="248" y="149" xmlns="http://www.w3.org/2000/svg"><path fill-rule="evenodd" clip-rule="evenodd" d="M6.685 0c1.846 0 3.342 1.614 3.342 3.606v6.31c0 1.991-1.496 3.605-3.342 3.605s-3.343-1.614-3.343-3.605v-6.31C3.342 1.614 4.84 0 6.685 0zM5.014 3.606c0-.996.748-1.803 1.67-1.803.924 0 1.672.807 1.672 1.803v6.31c0 .995-.748 1.803-1.671 1.803s-1.671-.807-1.671-1.803v-6.31z" fill="#fff"/><path d="M7.52 17.071v.958h2.507v1.802H3.342V18.03H5.85v-.958C2.552 16.628 0 13.593 0 9.916V8.113h1.671v1.803c0 2.987 2.245 5.408 5.014 5.408s5.013-2.421 5.013-5.408V8.113h1.671v1.803c0 3.677-2.551 6.712-5.849 7.155z" fill="#fff"/></svg><svg width="8" height="15" fill="none" viewBox="0 0 8 15" id="previous" x="166" y="120" xmlns="http://www.w3.org/2000/svg"><path d="M8 1.218L2.08 7.5 8 13.782 6.882 15 0 7.5 6.882 0 8 1.218z" fill="#B0B2B5"/></svg><svg width="13" height="13" fill="none" viewBox="0 0 13 13" id="read" x="93" y="138" xmlns="http://www.w3.org/2000/svg"><g clip-path="url(#bkclip0)" fill-rule="evenodd" clip-rule="evenodd" fill="#707070"><path d="M12.973 2.351H0V1h12.973v1.351zM12.973 6.703H0V5.35h12.973v1.352zM12.973 11.054H0V9.703h12.973v1.351z"/></g><defs><clipPath id="bkclip0"><path fill="#fff" d="M0 0h12.973v12.054H0z"/></clipPath></defs></svg><svg width="10" height="19" fill="none" viewBox="0 0 10 19" id="right-arrow-white" x="256" y="123" xmlns="http://www.w3.org/2000/svg"><path fill-rule="evenodd" clip-rule="evenodd" d="M7.459 9.5L.906 1.833 2.176.346 10 9.5l-7.823 9.154-1.271-1.487L7.459 9.5z" fill="#fff"/></svg><svg width="30" height="28" fill="none" viewBox="0 0 30 28" id="search-grey" x="184" y="95" xmlns="http://www.w3.org/2000/svg"><path fill-rule="evenodd" clip-rule="evenodd" d="M11.883 22.733C5.32 22.733 0 17.644 0 11.366 0 5.09 5.32 0 11.883 0c6.563 0 11.883 5.089 11.883 11.367 0 2.626-.931 5.045-2.495 6.97l8.002 7.654-2.1 2.009-8.003-7.654a12.18 12.18 0 01-7.287 2.387zm8.913-11.366c0 4.708-3.99 8.525-8.913 8.525-4.922 0-8.912-3.817-8.912-8.525s3.99-8.525 8.912-8.525c4.922 0 8.913 3.817 8.913 8.525z" fill="#C7C8CA"/></svg><svg width="23" height="22" fill="none" viewBox="0 0 23 22" id="search-white" x="210" y="123" xmlns="http://www.w3.org/2000/svg"><path fill-rule="evenodd" clip-rule="evenodd" d="M9.5 17.49c-5.094 0-9.225-3.915-9.225-8.745C.275 3.915 4.405 0 9.5 0s9.225 3.915 9.225 8.745c0 2.021-.723 3.882-1.937 5.363L23 19.997l-1.63 1.546-6.213-5.89A9.511 9.511 0 019.5 17.492zm6.92-8.745c0 3.623-3.099 6.56-6.92 6.56-3.82 0-6.918-2.937-6.918-6.56 0-3.622 3.097-6.559 6.918-6.559 3.822 0 6.92 2.937 6.92 6.56z" fill="#fff"/></svg><svg width="23" height="20" fill="none" viewBox="0 0 23 20" id="twitter" x="233" y="123" xmlns="http://www.w3.org/2000/svg"><path d="M20.063 4.87c.014.206.014.412.014.618 0 6.282-4.611 13.52-13.04 13.52A12.62 12.62 0 010 16.875c.369.044.724.058 1.107.058 2.142 0 4.114-.75 5.69-2.03-2.015-.044-3.704-1.412-4.286-3.295.284.044.568.073.866.073.411 0 .823-.058 1.206-.161-2.1-.442-3.675-2.354-3.675-4.664v-.059c.61.353 1.32.574 2.072.603A4.796 4.796 0 01.936 3.443c0-.883.227-1.692.625-2.398 2.256 2.883 5.647 4.766 9.45 4.972a5.556 5.556 0 01-.114-1.088c0-2.619 2.043-4.752 4.583-4.752 1.32 0 2.511.574 3.348 1.5A8.83 8.83 0 0021.738.53a4.711 4.711 0 01-2.016 2.619 8.931 8.931 0 002.64-.736 10.057 10.057 0 01-2.299 2.457z" fill="#fff"/></svg><svg width="12" height="15" fill="none" viewBox="0 0 12 15" id="watch" x="139" y="120" xmlns="http://www.w3.org/2000/svg"><path d="M11.656 6.87L1.156.12A.748.748 0 000 .75v13.5a.75.75 0 001.156.63l10.5-6.75a.751.751 0 000-1.26zM1.5 12.875V2.124L9.863 7.5 1.5 12.876z" fill="#707070"/></svg><svg width="5" height="9" fill="none" viewBox="0 0 5 9" id="white-breadcrumb" x="107" y="91" xmlns="http://www.w3.org/2000/svg"><path fill-rule="evenodd" clip-rule="evenodd" d="M3.603 4.5L0 .73.699 0 5 4.5.699 9 0 8.27 3.603 4.5z" fill="#fff"/></svg><svg width="25" height="20" fill="none" viewBox="0 0 25 20" id="youtube" x="240" y="95" xmlns="http://www.w3.org/2000/svg"><path d="M24.199 3.123c-.284-1.16-1.122-2.073-2.185-2.383-1.928-.563-9.656-.563-9.656-.563s-7.729 0-9.656.563C1.638 1.05.8 1.964.516 3.123 0 5.226 0 9.611 0 9.611s0 4.386.516 6.488c.285 1.16 1.122 2.035 2.186 2.346 1.927.563 9.656.563 9.656.563s7.728 0 9.656-.563c1.063-.31 1.9-1.186 2.185-2.346.516-2.102.516-6.488.516-6.488s0-4.385-.516-6.488zM9.83 13.593V5.63l6.46 3.983-6.46 3.982z" fill="#fff"/></svg></svg>