<svg width="243" height="283" viewBox="0 0 243 283" fill="none" xmlns="http://www.w3.org/2000/svg">
<g clip-path="url(#clip0)">
<mask id="mask0" mask-type="alpha" maskUnits="userSpaceOnUse" x="-904" y="0" width="1147" height="283">
<g style="mix-blend-mode:multiply">
<rect x="-904" width="1147" height="283" fill="#C4C4C4"/>
</g>
</mask>
<g mask="url(#mask0)">
<g style="mix-blend-mode:overlay">
<path d="M351.195 194.919C364.3 274.049 311.075 348.771 232.313 361.815C153.552 374.859 79.0793 321.286 65.9741 242.157C52.8689 163.027 106.094 88.3056 184.855 75.2614C263.617 62.2172 338.09 115.79 351.195 194.919Z" fill="#8DB0C7" fill-opacity="0.36"/>
<path d="M120.184 255.709C124.913 284.267 105.551 311.26 76.9376 315.998C48.3238 320.737 21.2935 301.428 16.5639 272.87C11.8342 244.312 31.1961 217.319 59.8099 212.581C88.4237 207.842 115.454 227.151 120.184 255.709Z" fill="#8DB0C7" fill-opacity="0.83"/>
</g>
</g>
</g>
<defs>
<clipPath id="clip0">
<rect width="243" height="283" fill="white"/>
</clipPath>
</defs>
</svg>
