<?xml version="1.0" encoding="UTF-8"?><svg width="250" height="186" viewBox="0 0 250 186" xmlns="http://www.w3.org/2000/svg" xmlns:xlink="http://www.w3.org/1999/xlink"><svg width="11" height="12" viewBox="0 0 11 12" id="Blue_Close" x="222" y="120" xmlns="http://www.w3.org/2000/svg"><path d="M6.773 5.61l3.999 4.2a.861.861 0 0 1 0 1.168.757.757 0 0 1-1.11 0L5.501 6.61l-4.163 4.364a.757.757 0 0 1-1.11 0A.846.846 0 0 1 0 10.39c0-.21.075-.423.23-.584L4.235 5.61.229 1.414A.846.846 0 0 1 0 .83C0 .62.075.407.23.246a.757.757 0 0 1 1.11 0L5.501 4.61 9.662.242a.757.757 0 0 1 1.11 0 .861.861 0 0 1 0 1.169l-4 4.199z" fill="#00338D" fill-rule="nonzero"/></svg><svg width="13" height="15" viewBox="0 0 13 15" id="Delete" x="147" y="120" xmlns="http://www.w3.org/2000/svg"><path d="M5.625 5.89v5.907a.316.316 0 0 1-.096.232.316.316 0 0 1-.232.096H4.64a.316.316 0 0 1-.233-.096.316.316 0 0 1-.096-.232V5.89c0-.092.032-.169.096-.233a.316.316 0 0 1 .233-.096h.656c.091 0 .168.032.232.096a.316.316 0 0 1 .096.233zm2.734-.327c.092 0 .169.031.233.095a.316.316 0 0 1 .095.233v5.906a.316.316 0 0 1-.095.232.316.316 0 0 1-.233.096h-.656a.316.316 0 0 1-.232-.096.316.316 0 0 1-.096-.232V5.89c0-.092.032-.169.096-.233a.316.316 0 0 1 .232-.096h.656zm3.61-2.625c.182 0 .337.063.465.19a.633.633 0 0 1 .191.466v.328a.316.316 0 0 1-.096.232.316.316 0 0 1-.232.096h-.547v9.188c0 .364-.128.674-.383.93a1.266 1.266 0 0 1-.93.382H2.564c-.365 0-.675-.128-.93-.383a1.266 1.266 0 0 1-.383-.93V4.25H.703a.316.316 0 0 1-.232-.096.316.316 0 0 1-.096-.232v-.328c0-.183.064-.337.191-.465a.633.633 0 0 1 .465-.192h2.024l.93-1.558A1.335 1.335 0 0 1 5.132.75h2.734a1.335 1.335 0 0 1 1.148.629l.93 1.558h2.024zm-7.383 0h3.828l-.492-.793c-.037-.055-.082-.083-.137-.083h-2.57c-.055 0-.1.028-.137.083l-.492.792zm5.851 1.312H2.564v9.023c0 .037.018.073.054.11.037.036.073.055.11.055h7.546c.037 0 .073-.019.11-.055.036-.037.055-.073.055-.11V4.25z" fill="#253D86" fill-rule="nonzero"/></svg><svg width="14" height="11" viewBox="0 0 14 11" id="Edit" x="224" y="105" xmlns="http://www.w3.org/2000/svg"><path d="M6.938 8.25l.906-.906-1.188-1.188-.906.907V7.5h.75v.75h.438zm3.43-5.367c.088-.089.09-.175.007-.258-.083-.083-.17-.08-.258.008L7.383 5.367c-.089.089-.091.175-.008.258.083.083.17.08.258-.008l2.734-2.734zM11 7.266V8.75c0 .62-.22 1.15-.66 1.59-.44.44-.97.66-1.59.66h-6.5c-.62 0-1.15-.22-1.59-.66C.22 9.9 0 9.37 0 8.75v-6.5C0 1.63.22 1.1.66.66 1.1.22 1.63 0 2.25 0h6.5c.328 0 .633.065.914.195a.237.237 0 0 1 .14.18.243.243 0 0 1-.07.227l-.382.382a.228.228 0 0 1-.25.063A1.39 1.39 0 0 0 8.75 1h-6.5c-.344 0-.638.122-.883.367S1 1.907 1 2.25v6.5c0 .344.122.638.367.883s.54.367.883.367h6.5c.344 0 .638-.122.883-.367S10 9.093 10 8.75v-.984c0-.068.023-.125.07-.172l.5-.5a.234.234 0 0 1 .274-.055c.104.042.156.117.156.227zM10.25 1.5l2.25 2.25L7.25 9H5V6.75l5.25-5.25zm3.469 1.031L13 3.25 10.75 1l.719-.719A.723.723 0 0 1 12 .062c.208 0 .385.073.531.22l1.188 1.187a.723.723 0 0 1 .219.531.723.723 0 0 1-.22.531z" fill="#253D86" fill-rule="nonzero"/></svg><svg width="15" height="15" viewBox="0 0 15 15" id="chevron-left" x="160" y="120" xmlns="http://www.w3.org/2000/svg"><rect width="100%" height="100%" fill="none"/><g class="adcurrentLayer"><path d="M8.252 13.117l-5.077-5.5 5.077-5.5" stroke="#253D86" stroke-width="2" fill="none" fill-rule="evenodd"/></g></svg><svg width="15" height="15" viewBox="0 0 15 15" id="chevron-left-light" x="175" y="120" xmlns="http://www.w3.org/2000/svg"><rect width="100%" height="100%" fill="none"/><g class="aecurrentLayer"><path d="M8.252 13.117l-5.077-5.5 5.077-5.5" stroke="#94A0C3" stroke-width="2" fill="none" fill-rule="evenodd"/></g></svg><svg width="8" height="13" viewBox="0 0 8 13" id="chevron-right" x="190" y="120" xmlns="http://www.w3.org/2000/svg"><path d="M.962 1.038l5.076 5.5-5.076 5.5" stroke="#253D86" stroke-width="2" fill="none" fill-rule="evenodd"/></svg><svg width="8" height="13" viewBox="0 0 8 13" id="chevron-right-grey" x="198" y="120" xmlns="http://www.w3.org/2000/svg"><path d="M.962 1.038l5.076 5.5-5.076 5.5" stroke="#D9D9D9" stroke-width="2" fill="none" fill-rule="evenodd"/></svg><svg width="8" height="13" viewBox="0 0 8 13" id="chevron-right-light" x="206" y="120" xmlns="http://www.w3.org/2000/svg"><path d="M.962 1.038l5.076 5.5-5.076 5.5" stroke="#94A0C3" stroke-width="2" fill="none" fill-rule="evenodd"/></svg><svg width="8" height="13" viewBox="0 0 8 13" id="chevron-right-white" x="214" y="120" xmlns="http://www.w3.org/2000/svg"><path d="M.962 1.038l5.076 5.5-5.076 5.5" stroke="#FFF" stroke-width="2" fill="none" fill-rule="evenodd"/></svg><svg width="12" height="11" viewBox="0 0 12 11" id="close-icon" x="238" y="105" xmlns="http://www.w3.org/2000/svg"><g stroke="#FFF" fill="none" fill-rule="evenodd" stroke-linecap="round"><path d="M.697.197l10.606 10.606M11.303.197L.697 10.803"/></g></svg><svg version="1.1" id="close-icon-white" x="131" y="120" width="16" height="16" xml:space="preserve" viewBox="0 0 16 16" xmlns="http://www.w3.org/2000/svg"><style>.akst0{fill:#fff}</style><path class="akst0" d="M16 1.8L14.2 0 8 6.2 1.8 0 0 1.8 6.2 8 0 14.2 1.8 16 8 9.8l6.2 6.2 1.8-1.8L9.8 8z"/></svg><svg width="21" height="20" viewBox="0 0 21 20" id="cookie-close-icon" x="56" y="120" xmlns="http://www.w3.org/2000/svg"><g fill="#012F8B" stroke="#00338D" stroke-width="2" fill-rule="evenodd" stroke-linecap="round" stroke-linejoin="round"><path d="M1.339 1.087l17.826 17.826M19.165 1.087L1.34 18.913"/></g></svg><svg width="14" height="9" viewBox="0 0 14 9" id="down-blue" x="227" y="96" xmlns="http://www.w3.org/2000/svg"><path d="M7 6.086L1.707.793.293 2.207 7 8.914l6.707-6.707L12.293.793z" fill="#253D86" fill-rule="nonzero"/></svg><svg width="23" height="30" viewBox="0 0 23 30" id="download" x="211" y="40" xmlns="http://www.w3.org/2000/svg"><path d="M16.611 13.619H23L11.5 26 0 13.619h6.389V0H16.61v13.619zM18 27H5v3h13v-3z" fill="#253D86" fill-rule="nonzero"/></svg><svg width="20" height="15" viewBox="0 0 20 15" id="email" x="150" y="105" xmlns="http://www.w3.org/2000/svg"><path d="M10 8L0 0h20L10 8zM5 6.263L0 2v10l5-5.737zm10 0L20 12V2l-5 4.263zM13.23 8L10 10.48 6.77 8 0 15h20l-6.77-7z" fill="#00A3A1" fill-rule="nonzero"/></svg><svg width="8" height="12" viewBox="0 0 8 12" id="green-icon" x="233" y="120" xmlns="http://www.w3.org/2000/svg"><path d="M2.809 5.998l3.97-3.781a.688.688 0 0 0 0-1.01.783.783 0 0 0-1.062 0L1.218 5.493a.69.69 0 0 0-.021.985l4.517 4.315a.77.77 0 0 0 .531.208.77.77 0 0 0 .532-.208.688.688 0 0 0 0-1.01L2.809 5.998z" fill="#00A3A1" fill-rule="nonzero" stroke="#00A3A1"/></svg><svg width="21" height="21" viewBox="0 0 21 21" id="info" x="64" y="143" xmlns="http://www.w3.org/2000/svg"><g transform="translate(1 1)" fill="none" fill-rule="evenodd"><circle stroke="#253D86" stroke-width="2" cx="9.5" cy="9.5" r="9.5"/><text font-family="Arial-BoldMT, Arial" font-size="15" font-weight="bold" fill="#253D86"><tspan x="4.919" y="15">?</tspan></text></g></svg><svg width="150" height="60" viewBox="0 0 150 60" id="kpmg-logo-blue" xmlns="http://www.w3.org/2000/svg"><path d="M116.7 0v29.94a20.31 20.31 0 0 0-2.776 2.663V0h-33.3v27.262h-2.76V0H44.56v27.305h-2.756V0H8.497v31.122L0 59.339h7.473l3.754-12.497h1.08l6.198 12.497h9.03l-6.013-12.497h13.646L31.382 59.34h8.168l3.735-12.462h1.793v-.035h18.183l-3.606 12.46h8.234l3.495-12.46h3.705l.1 12.46h6.908l7.928-12.46h5.19l-2.676 12.46h8.107l2.63-12.46h4.689c-.187 3.863.805 7.371 3.377 9.733C114.483 59.45 119.307 60 122.88 60c4.884 0 9.955-.698 15.057-1.844l2.81-11.314H150V0h-33.3zM41 28.405l-.486 1.581-4.438 14.504-.175.51H21.294l-1.139-2.363 15.746-15.803H25.784L13.471 39.86l3.989-13.026H10V1h31v27.405zm8.289 12.538h-.01c-.315.015-.633.04-.997.04-.475 0-.847.017-1.197.017L45 40.984l.964-3.371.456-1.675 1.094-3.922c.484 0 .96-.016 1.413-.016h1.615c2.755 0 4.498.148 5.132.986.486.63.423 1.717-.151 3.371-.982 2.85-2.226 4.296-6.234 4.586zM72 46l2.898-12L75 46h-3zm5-19.21h-7.764L63.909 45h-8.233c4.196-1.524 6.749-4.435 7.538-8.753.65-3.356.341-5.565-1.052-7.218-2.088-2.46-6.28-2.25-10.004-2.25-.65 0-6.158.012-6.158.012V1h31v25.79zM95.624 45H91l7-11-2.376 11zM113 27.303l-.015 6.306c-2.162 2.936-3.504 6.14-4.132 8.723A17.317 17.317 0 0 0 108.36 45h-4.556l3.895-18.166-13.11-.012L82.854 45H82V1h31v26.303zm17.355 26.158c-1.838.324-3.671.539-5.416.539-4.642 0-7.871-2.1-7.939-7h15l-1.645 6.46zM149 45h-7.806l1.289-5.076h-15.64L125.557 45H118v-1.042c.117-.573.217-1.172.363-1.814 1.375-5.473 5.03-10.882 11.35-10.882 2.502 0 4.988.938 4.647 4.34h9.305c.367-1.588.983-4.292-.773-6.777-1.984-2.702-5.979-3.786-11.16-3.786-3.686 0-9.075.58-13.732 3.569V1h31v44z" fill="#00338D" fill-rule="evenodd"/></svg><svg width="40" height="43" viewBox="0 0 40 43" id="kpmg-logo-blue-bg" y="143" xmlns="http://www.w3.org/2000/svg"><defs><path id="asb" d="M13.695 20L9.032 40l9.033-4.752z"/><filter x="-99.6%" y="-75%" width="365.7%" height="220%" filterUnits="objectBoundingBox" id="asa"><feOffset dx="3" dy="-3" in="SourceAlpha" result="shadowOffsetOuter1"/><feGaussianBlur stdDeviation="3.5" in="shadowOffsetOuter1" result="shadowBlurOuter1"/><feColorMatrix values="0 0 0 0 0 0 0 0 0 0 0 0 0 0 0 0 0 0 0.20473667 0" in="shadowBlurOuter1"/></filter></defs><g fill="none" fill-rule="evenodd"><path fill="#B8B5B5" d="M32.258 21.752l7.097 2.119-3.406-6.452z"/><path fill="#C8C5C4" d="M33.114 24.516l3.015-7.097-10.323.721z"/><path fill="#C7C4C4" d="M32.903 24.413l-18.865 9.135L13.548 20z"/><g><use fill="#000" filter="url(#asa)" xlink:href="#asb"/><use fill="#77C0EC" xlink:href="#asb"/></g><path fill="#0096D8" d="M20 11.093L0 5.806l15.843 14.84z"/><path fill="#AED4F2" d="M18.065 3.194L2.58 0l14.324 20z"/><path fill="#77C0EC" d="M32.903 24.516L17.985 3.226l-4.437 17.026z"/></g></svg><svg width="61" height="65" viewBox="0 0 61 65" id="kpmg-logo-white-bg" x="150" y="40" xmlns="http://www.w3.org/2000/svg"><defs><path id="atb" d="M21.227 31L14 62l14-7.365z"/><filter x="-64.3%" y="-48.4%" width="271.4%" height="177.4%" filterUnits="objectBoundingBox" id="ata"><feOffset dx="3" dy="-3" in="SourceAlpha" result="shadowOffsetOuter1"/><feGaussianBlur stdDeviation="3.5" in="shadowOffsetOuter1" result="shadowBlurOuter1"/><feColorMatrix values="0 0 0 0 0 0 0 0 0 0 0 0 0 0 0 0 0 0 0.20473667 0" in="shadowBlurOuter1"/></filter></defs><g fill="none" fill-rule="evenodd"><path fill="#00468F" d="M50 33.716L61 37l-5.28-10z"/><path fill="#C8C5C4" d="M51.327 38L56 27l-16 1.118z"/><path fill="#C7C4C4" d="M51 37.84L21.76 52 21 31z"/><g><use fill="#000" filter="url(#ata)" xlink:href="#atb"/><use fill="#77C0EC" xlink:href="#atb"/></g><path fill="#0096D8" d="M31 17.193L0 9l24.557 23z"/><path fill="#AED4F2" d="M28 4.95L4 0l22.202 31z"/><path fill="#77C0EC" d="M51 38L27.877 5 21 31.391z"/></g></svg><svg width="56" height="23" viewBox="0 0 56 23" id="kpmg-mobile" y="120" xmlns="http://www.w3.org/2000/svg"><path d="M43.568 0v11.177a7.582 7.582 0 0 0-1.036.995V0H30.1v10.178h-1.03V0H16.635v10.194h-1.028V0H3.172v11.619L0 22.153h2.79l1.402-4.665h.403l2.314 4.665h3.371l-2.245-4.665h5.094l-1.413 4.665h3.05l1.394-4.652h.67v-.013h6.787l-1.346 4.651h3.074l1.305-4.651h1.383l.037 4.651h2.58l2.96-4.651h1.937l-1 4.651h3.028l.981-4.651h1.75c-.069 1.442.301 2.752 1.262 3.633 1.172 1.074 2.973 1.279 4.307 1.279 1.823 0 3.716-.26 5.621-.688l1.049-4.224H56V0H43.568zM15.307 10.605l-.182.59-1.657 5.414-.065.191H7.95l-.425-.882 5.878-5.9H9.626L5.03 14.88l1.49-4.863H3.732V.373h11.574v10.232zm3.094 4.68h-.004c-.117.006-.236.016-.372.016-.177 0-.316.006-.447.006L16.8 15.3l.36-1.259.17-.625.409-1.464c.18 0 .358-.006.527-.006h.603c1.028 0 1.68.055 1.916.368.181.235.158.64-.056 1.258-.367 1.064-.832 1.604-2.328 1.712zm8.479 1.888l1.082-4.48.038 4.48h-1.12zm1.867-7.171h-2.899L23.86 16.8h-3.074c1.566-.569 2.52-1.656 2.814-3.268.243-1.253.127-2.077-.393-2.694-.78-.919-2.344-.84-3.735-.84l-2.299.004V.373h11.574v9.629zM35.7 16.8h-1.727l2.614-4.107L35.7 16.8zm6.487-6.607l-.006 2.354a9.417 9.417 0 0 0-1.542 3.257c-.09.337-.151.665-.185.996h-1.7l1.453-6.782-4.894-.005-4.38 6.787h-.32V.373h11.574v9.82zm6.479 9.766c-.686.12-1.37.201-2.022.201-1.733 0-2.939-.784-2.964-2.613h5.6l-.614 2.412zm6.96-3.159h-2.914l.482-1.895h-5.84l-.48 1.895h-2.82v-.39c.043-.213.08-.437.135-.676.513-2.044 1.877-4.063 4.237-4.063.934 0 1.862.35 1.735 1.62h3.474c.137-.592.367-1.602-.289-2.53-.74-1.008-2.232-1.413-4.166-1.413-1.376 0-3.388.216-5.127 1.332V.373h11.574V16.8z" fill="#00338D" fill-rule="evenodd"/></svg><svg width="150" height="60" viewBox="0 0 150 60" id="kpmg-white" y="60" xmlns="http://www.w3.org/2000/svg"><path d="M116.7 0v29.94a20.31 20.31 0 0 0-2.776 2.663V0h-33.3v27.262h-2.76V0H44.56v27.305h-2.756V0H8.497v31.122L0 59.339h7.473l3.754-12.497h1.08l6.198 12.497h9.03l-6.013-12.497h13.646L31.382 59.34h8.168l3.735-12.462h1.793v-.035h18.183l-3.606 12.46h8.234l3.495-12.46h3.705l.1 12.46h6.908l7.928-12.46h5.19l-2.676 12.46h8.107l2.63-12.46h4.689c-.187 3.863.805 7.371 3.377 9.733C114.483 59.45 119.307 60 122.88 60c4.884 0 9.955-.698 15.057-1.844l2.81-11.314H150V0h-33.3zM41 28.405l-.486 1.581-4.438 14.504-.175.51H21.294l-1.139-2.363 15.746-15.803H25.784L13.471 39.86l3.989-13.026H10V1h31v27.405zm8.289 12.538h-.01c-.315.015-.633.04-.997.04-.475 0-.847.017-1.197.017L45 40.984l.964-3.371.456-1.675 1.094-3.922c.484 0 .96-.016 1.413-.016h1.615c2.755 0 4.498.148 5.132.986.486.63.423 1.717-.151 3.371-.982 2.85-2.226 4.296-6.234 4.586zM72 46l2.898-12L75 46h-3zm5-19.21h-7.764L63.909 45h-8.233c4.196-1.524 6.749-4.435 7.538-8.753.65-3.356.341-5.565-1.052-7.218-2.088-2.46-6.28-2.25-10.004-2.25-.65 0-6.158.012-6.158.012V1h31v25.79zM95.624 45H91l7-11-2.376 11zM113 27.303l-.015 6.306c-2.162 2.936-3.504 6.14-4.132 8.723A17.317 17.317 0 0 0 108.36 45h-4.556l3.895-18.166-13.11-.012L82.854 45H82V1h31v26.303zm17.355 26.158c-1.838.324-3.671.539-5.416.539-4.642 0-7.871-2.1-7.939-7h15l-1.645 6.46zM149 45h-7.806l1.289-5.076h-15.64L125.557 45H118v-1.042c.117-.573.217-1.172.363-1.814 1.375-5.473 5.03-10.882 11.35-10.882 2.502 0 4.988.938 4.647 4.34h9.305c.367-1.588.983-4.292-.773-6.777-1.984-2.702-5.979-3.786-11.16-3.786-3.686 0-9.075.58-13.732 3.569V1h31v44z" fill="#FFF" fill-rule="evenodd"/></svg><svg width="100" height="40" viewBox="0 0 100 40" id="kpmg-white-laptop" x="150" xmlns="http://www.w3.org/2000/svg"><rect width="100%" height="100%" fill="none"/><g class="awcurrentLayer"><path d="M77.486.53v19.378a13.287 13.287 0 0 0-1.83 1.724V.53h-21.96v17.646h-1.82V.529H29.914v17.674h-1.817V.529H6.132v20.144L.53 38.937h4.928l2.476-8.089h.712l4.087 8.09h5.955l-3.965-8.09h8.999l-2.497 8.09h5.386l2.463-8.067h1.183v-.023h11.99l-2.378 8.065h5.43l2.305-8.065h2.443l.066 8.065h4.555l5.229-8.065h3.423l-1.766 8.065H66.9l1.734-8.065h3.092c-.123 2.5.53 4.771 2.227 6.3 2.072 1.861 5.253 2.217 7.608 2.217 3.221 0 6.565-.452 9.93-1.193l1.852-7.324h6.103V.53h-21.96zm-49.92 18.385l-.32 1.023-2.927 9.388-.115.33h-9.632l-.752-1.53 10.384-10.228h-6.672l-8.12 8.431 2.63-8.431H7.125V1.176h20.442v17.739zm5.467 8.115h-.007c-.208.01-.418.026-.658.026-.313 0-.558.011-.789.011l-1.375-.01.636-2.183.3-1.083.722-2.539c.32 0 .633-.01.932-.01h1.065c1.816 0 2.966.096 3.384.638.32.407.28 1.111-.1 2.182-.647 1.844-1.468 2.78-4.11 2.968zm14.976 3.273l1.911-7.767.068 7.767h-1.979zm3.297-12.433h-5.12l-3.512 11.786h-5.43c2.767-.986 4.45-2.87 4.971-5.666.43-2.172.225-3.601-.693-4.671-1.377-1.593-4.141-1.456-6.597-1.456l-4.061.007V1.176h20.442V17.87zm12.282 11.786h-3.05l4.617-7.12-1.567 7.12zm11.458-11.454l-.01 4.081c-1.425 1.9-2.31 3.975-2.724 5.646a11.023 11.023 0 0 0-.326 1.727h-3.004l2.568-11.758-8.645-.008-7.738 11.766h-.563V1.176h20.442v17.026zm11.445 16.93c-1.212.21-2.42.35-3.571.35-3.062 0-5.191-1.36-5.236-4.531h9.892l-1.085 4.181zm12.296-5.476h-5.148l.85-3.286H84.175l-.848 3.286h-4.983v-.675c.077-.37.143-.758.24-1.173.906-3.543 3.316-7.044 7.484-7.044 1.65 0 3.289.607 3.064 2.809h6.137c.241-1.028.647-2.778-.51-4.387-1.309-1.748-3.943-2.45-7.36-2.45-2.43 0-5.985.375-9.055 2.31V1.176h20.443v28.48z" fill="#FFF" fill-rule="evenodd"/></g></svg><svg width="16" height="9" viewBox="0 0 16 9" id="menu-icon" x="211" y="96" xmlns="http://www.w3.org/2000/svg"><g stroke="#00338D" fill="none" fill-rule="evenodd" stroke-linecap="round"><path d="M.5.5h15M.5 8.5h15"/></g></svg><svg width="20" height="26" viewBox="0 0 20 26" id="mobile" x="211" y="70" xmlns="http://www.w3.org/2000/svg"><path d="M19.35 5.152a2 2 0 0 0-1.415-2.449L8.276.115a2 2 0 0 0-2.45 1.414L.65 20.848a2 2 0 0 0 1.415 2.449l9.659 2.588a2 2 0 0 0 2.45-1.414L19.35 5.152zm-8.21-2.2l2.897.777a.5.5 0 0 1-.259.966l-2.898-.777a.5.5 0 0 1 .26-.965zM7.411 22.66a1 1 0 1 1 .517-1.931 1 1 0 0 1-.517 1.931zm5.606-1.603l-9.66-2.589 3.63-13.546 9.66 2.588-3.63 13.547z" fill="#00A3A1" fill-rule="nonzero"/></svg><svg width="14" height="17" viewBox="0 0 14 17" id="pdf-file" x="117" y="120" xmlns="http://www.w3.org/2000/svg"><path d="M13.206 3.679c.167.166.31.392.429.678.119.286.178.548.178.786v10.286c0 .238-.083.44-.25.607a.827.827 0 0 1-.607.25h-12a.827.827 0 0 1-.607-.25.827.827 0 0 1-.25-.607V1.143c0-.238.083-.44.25-.607a.827.827 0 0 1 .607-.25h8c.238 0 .5.06.786.178.286.12.512.262.678.429l2.786 2.786zM9.242 1.5v3.357h3.357c-.06-.172-.125-.295-.196-.366L9.608 1.696c-.071-.071-.193-.136-.366-.196zm3.428 13.643V6H8.956a.827.827 0 0 1-.607-.25.827.827 0 0 1-.25-.607V1.429H1.242v13.714H12.67zM8.081 9.848c.197.155.447.322.75.5a8.86 8.86 0 0 1 1.045-.062c.875 0 1.402.146 1.58.437.095.131.101.286.018.464 0 .006-.003.012-.009.018l-.018.018v.01c-.035.225-.247.338-.634.338-.285 0-.628-.06-1.026-.178a6.51 6.51 0 0 1-1.161-.473c-1.316.143-2.482.39-3.5.74-.91 1.56-1.631 2.34-2.16 2.34a.52.52 0 0 1-.25-.063L2.5 13.83a.955.955 0 0 0-.054-.044c-.06-.06-.077-.167-.053-.322.053-.238.22-.51.5-.817.28-.306.672-.593 1.178-.861.084-.054.152-.036.206.053.012.012.017.024.017.036.31-.506.628-1.092.956-1.759.405-.81.714-1.59.928-2.34a7.217 7.217 0 0 1-.272-1.423c-.039-.462-.02-.841.058-1.139.066-.238.19-.357.375-.357h.197c.136 0 .24.045.312.134.107.125.134.327.08.607a.194.194 0 0 1-.035.072.232.232 0 0 1 .009.071v.268c-.012.732-.054 1.303-.125 1.714.327.976.762 1.685 1.303 2.125zm-5.143 3.67c.31-.143.718-.613 1.224-1.41a5.09 5.09 0 0 0-.782.75c-.217.261-.364.481-.442.66zm3.554-8.214c-.09.25-.095.642-.018 1.178l.063-.393c0-.018.02-.146.062-.384a.201.201 0 0 1 .036-.071c-.006-.006-.01-.012-.01-.018a.069.069 0 0 1-.008-.027.514.514 0 0 0-.116-.321c0 .006-.003.012-.01.018v.018zm-1.107 5.901a13.096 13.096 0 0 1 2.535-.723 1.35 1.35 0 0 1-.116-.085 1.596 1.596 0 0 1-.142-.12c-.453-.399-.83-.923-1.134-1.572a11.93 11.93 0 0 1-.741 1.76c-.179.333-.313.58-.402.74zm5.768-.143c-.143-.142-.56-.214-1.25-.214.452.167.821.25 1.107.25a.865.865 0 0 0 .16-.009c0-.006-.005-.015-.017-.027z" fill="#253D86" fill-rule="nonzero"/></svg><svg width="14" height="20" viewBox="0 0 14 20" id="phone" x="231" y="70" xmlns="http://www.w3.org/2000/svg"><path d="M14 18.85l-3.081-5.662c-.007.004-1.727.809-1.806.843-1.96.905-5.95-6.517-4.033-7.495l1.823-.855L3.846 0 2.003.866c-6.302 3.129 3.704 21.652 10.15 18.846.107-.046 1.84-.858 1.847-.861z" fill="#00A3A1" fill-rule="nonzero"/></svg><svg width="24" height="24" viewBox="0 0 24 24" id="print" x="40" y="143" xmlns="http://www.w3.org/2000/svg"><path d="M20.5 8a.5.5 0 1 0 0 1 .5.5 0 0 0 0-1zM22 7H2v9h2v-3h16v3h2V7zM6 22h12v-7H6v7zM6 5h12V2H6v3zm18 0v13h-4v6H4v-6H0V5h4V0h16v5h4zM8 20h6v-1H8v1zm0-2h8v-1H8v1z" fill="#FFF" fill-rule="evenodd"/></svg><svg width="20" height="20" viewBox="0 0 20 20" id="profile-default" x="77" y="120" xmlns="http://www.w3.org/2000/svg"><path d="M19.167 10c0-5.06-4.108-9.167-9.167-9.167C4.94.833.833 4.941.833 10c0 2.072.69 3.986 1.852 5.522.34-.377.874-.675 1.708-.868 1.687-.385 2.813-.697 3.064-1.252.101-.226.05-.523-.156-.905-1.598-2.946-1.902-4.534-.859-6.288C7.154 5.017 8.45 4.333 10 4.333c1.537 0 2.825.674 3.533 1.849 1.043 1.732.746 3.329-.833 6.311-.204.386-.254.685-.15.912.255.557 1.37.865 3.056 1.25.833.192 1.367.49 1.708.868A9.124 9.124 0 0 0 19.167 10zm-3.748 5.467c-3.207-.755-3.414-1.251-3.627-1.716-.216-.471-.158-1.024.171-1.648 1.439-2.714 1.742-4.02.855-5.491-.56-.933-1.562-1.445-2.818-1.445-1.268 0-2.277.521-2.842 1.469-.887 1.49-.576 2.786.875 5.464.335.618.397 1.172.184 1.645-.221.488-.51.992-3.638 1.722-.71.163-1.119.374-1.352.706A9.14 9.14 0 0 0 10 19.167a9.146 9.146 0 0 0 6.773-2.992c-.236-.334-.644-.545-1.354-.708zM10 0c5.52 0 10 4.48 10 10s-4.48 10-10 10S0 15.52 0 10 4.48 0 10 0" fill="#00338D" fill-rule="evenodd"/></svg><svg width="20" height="20" viewBox="0 0 20 20" id="profile-selected" x="97" y="120" xmlns="http://www.w3.org/2000/svg"><path d="M19.167 10c0-5.06-4.108-9.167-9.167-9.167C4.94.833.833 4.941.833 10c0 2.072.69 3.986 1.852 5.522.34-.377.874-.675 1.708-.868 1.687-.385 2.813-.697 3.064-1.252.101-.226.05-.523-.156-.905-1.598-2.946-1.902-4.534-.859-6.288C7.154 5.017 8.45 4.333 10 4.333c1.537 0 2.825.674 3.533 1.849 1.043 1.732.746 3.329-.833 6.311-.204.386-.254.685-.15.912.255.557 1.37.865 3.056 1.25.833.192 1.367.49 1.708.868A9.124 9.124 0 0 0 19.167 10zm-3.748 5.467c-3.207-.755-3.414-1.251-3.627-1.716-.216-.471-.158-1.024.171-1.648 1.439-2.714 1.742-4.02.855-5.491-.56-.933-1.562-1.445-2.818-1.445-1.268 0-2.277.521-2.842 1.469-.887 1.49-.576 2.786.875 5.464.335.618.397 1.172.184 1.645-.221.488-.51.992-3.638 1.722-.71.163-1.119.374-1.352.706A9.14 9.14 0 0 0 10 19.167a9.146 9.146 0 0 0 6.773-2.992c-.236-.334-.644-.545-1.354-.708zM10 0c5.52 0 10 4.48 10 10s-4.48 10-10 10S0 15.52 0 10 4.48 0 10 0" fill="#2060AD" fill-rule="evenodd"/></svg><svg width="11" height="9" viewBox="0 0 11 9" id="thin-tick" x="85" y="143" xmlns="http://www.w3.org/2000/svg"><path d="M1.384 4.85A.812.812 0 0 0 .22 4.9.857.857 0 0 0 .266 6.09l2.626 2.477a.812.812 0 0 0 1.142-.024l6.458-6.604a.857.857 0 0 0 0-1.193.812.812 0 0 0-1.167 0L3.428 6.778 1.384 4.851z" fill="#00338D" fill-rule="nonzero"/></svg><svg width="11" height="9" viewBox="0 0 11 9" id="thin-tick-white" x="96" y="143" xmlns="http://www.w3.org/2000/svg"><path d="M1.384 4.85A.812.812 0 0 0 .22 4.9.857.857 0 0 0 .266 6.09l2.626 2.477a.812.812 0 0 0 1.142-.024l6.458-6.604a.857.857 0 0 0 0-1.193.812.812 0 0 0-1.167 0L3.428 6.778 1.384 4.851z" fill="#fff" fill-rule="nonzero"/></svg><svg width="18" height="14" viewBox="0 0 18 14" id="tick-mark" x="170" y="105" xmlns="http://www.w3.org/2000/svg"><path d="M17.369 2.415c.209.209.313.461.313.76 0 .297-.104.55-.313.758l-9.606 9.598a1.035 1.035 0 0 1-.76.313c-.298 0-.55-.104-.76-.313L.682 7.973a1.033 1.033 0 0 1-.313-.759c0-.297.104-.55.313-.759l1.52-1.518c.208-.208.46-.312.759-.312.298 0 .55.104.76.313L7.002 8.23 14.331.897c.208-.208.461-.312.76-.312.297 0 .55.104.759.312l1.519 1.518z" fill="#FFF" fill-rule="nonzero"/></svg><svg width="18" height="14" viewBox="0 0 18 14" id="tick-mark-blue" x="188" y="105" xmlns="http://www.w3.org/2000/svg"><path d="M17.369 2.415c.209.209.313.461.313.76 0 .297-.104.55-.313.758l-9.606 9.598a1.035 1.035 0 0 1-.76.313c-.298 0-.55-.104-.76-.313L.682 7.973a1.033 1.033 0 0 1-.313-.759c0-.297.104-.55.313-.759l1.52-1.518c.208-.208.46-.312.759-.312.298 0 .55.104.76.313L7.002 8.23 14.331.897c.208-.208.461-.312.76-.312.297 0 .55.104.759.312l1.519 1.518z" fill="#00338D" fill-rule="nonzero"/></svg><svg width="12" height="23" viewBox="0 0 12 23" id="tooltip-arrow" x="234" y="40" xmlns="http://www.w3.org/2000/svg"><defs><path d="M1506 1503l-7.925-8.225a4 4 0 0 1 0-5.55L1506 1481v22z" id="bib"/><filter x="-27.8%" y="-6.8%" width="141.9%" height="120.5%" filterUnits="objectBoundingBox" id="bia"><feMorphology radius=".5" in="SourceAlpha" result="shadowSpreadOuter1"/><feOffset dx="-2" dy="2" in="shadowSpreadOuter1" result="shadowOffsetOuter1"/><feGaussianBlur stdDeviation="1" in="shadowOffsetOuter1" result="shadowBlurOuter1"/><feColorMatrix values="0 0 0 0 0 0 0 0 0 0 0 0 0 0 0 0 0 0 0.1 0" in="shadowBlurOuter1"/></filter></defs><g transform="translate(-1494 -1481)" fill="none" fill-rule="evenodd"><use fill="#000" filter="url(#bia)" xlink:href="#bib"/><use fill="#FFF" xlink:href="#bib"/></g></svg><svg width="18" height="14" viewBox="0 0 18 14" id="white-box" x="206" y="105" xmlns="http://www.w3.org/2000/svg"><text transform="translate(-21 -23)" fill="#FFF" fill-rule="evenodd" font-family="FontAwesome" font-size="20"><tspan x="20" y="37"></tspan></text></svg></svg>