<?xml version="1.0" encoding="UTF-8"?>
<svg width="350px" height="105px" viewBox="0 0 350 105" version="1.1" xmlns="http://www.w3.org/2000/svg" xmlns:xlink="http://www.w3.org/1999/xlink">
    <title>Armyn Solutions LOGO - DARK</title>
    <defs>
        <linearGradient x1="2.46561561%" y1="45.934048%" x2="94.9056332%" y2="53.7862282%" id="linearGradient-1">
            <stop stop-color="#38EBFF" offset="0%"></stop>
            <stop stop-color="#003DFF" offset="100%"></stop>
        </linearGradient>
    </defs>
    <g id="Page-1" stroke="none" stroke-width="1" fill="none" fill-rule="evenodd">
        <g id="Armyn-·-Landing-page" transform="translate(-905.000000, -422.000000)" fill-rule="nonzero">
            <g id="Armyn-Solutions-LOGO---DARK" transform="translate(905.000000, 422.000000)">
                <path d="M120.080968,66.4766277 L112.484975,55.7779633 C111.600015,55.8728289 110.710563,55.9196422 109.820534,55.918197 L100.863105,55.918197 L100.863105,66.4766277 L97.3572621,66.4766277 L97.3572621,33.1711185 L109.820534,33.1711185 C114.0665,33.1711185 117.395103,34.1858654 119.806344,36.2153589 C122.217585,38.2448525 123.423205,41.0358932 123.423205,44.5884808 C123.65966,49.4267939 120.500639,53.7789541 115.827212,55.0534224 L123.960768,66.4707846 L120.080968,66.4766277 Z M117.276294,50.7353923 C119.017529,49.2746244 119.890094,47.2276016 119.89399,44.5943239 C119.89399,41.9026155 119.021425,39.834168 117.276294,38.3889816 C115.531163,36.9437952 113.010851,36.2231497 109.715359,36.2270138 L100.863105,36.2270138 L100.863105,52.9207012 L109.715359,52.9207012 C113.010851,52.9207012 115.531163,52.1922649 117.276294,50.7353923 L117.276294,50.7353923 Z" id="Shape" fill="#38EBFF"></path>
                <polygon id="Path" fill="#38EBFF" points="194.860601 33.1769616 194.860601 66.4824708 191.483306 66.4824708 191.483306 39.8380634 178.406511 62.2462437 176.741235 62.2462437 163.658598 39.9841402 163.658598 66.4766277 160.281302 66.4766277 160.281302 33.1711185 163.202838 33.1711185 177.629382 57.8464107 191.950751 33.1535893"></polygon>
                <polygon id="Path" fill="#38EBFF" points="245.66611 54.9657763 245.66611 66.4766277 242.195326 66.4766277 242.195326 54.9657763 228.873122 33.1769616 232.63606 33.1769616 244.053422 51.8747913 255.464942 33.1769616 258.970785 33.1769616"></polygon>
                <polygon id="Path" fill="#38EBFF" points="320.118531 33.1769616 320.118531 66.4824708 317.196995 66.4824708 295.805509 39.4582638 295.805509 66.4766277 292.299666 66.4766277 292.299666 33.1711185 295.221202 33.1711185 316.641903 60.1836394 316.641903 33.1769616"></polygon>
                <polygon id="Path" fill="#38EBFF" points="48.0592654 33.1769616 44.5884808 33.1769616 29.3672788 66.4766277 33.0308848 66.4766277 46.3005008 36.8405676 59.5701169 66.4766277 63.2863105 66.4766277"></polygon>
                <polygon id="Path" fill="url(#linearGradient-1)" points="329.157763 99.6594324 329.157763 96.7378965 346.558431 96.7378965 346.558431 2.92153589 2.92153589 2.92153589 2.92153589 96.7378965 143.850584 96.7378965 143.850584 99.6594324 0 99.6594324 0 0 349.479967 0 349.479967 99.6594324"></polygon>
                <path d="M153.631886,100.617696 C153.631886,101.920701 155.168614,102.954925 157.067613,102.954925 C158.966611,102.954925 160.497496,102.020033 160.497496,100.617696 C160.497496,99.2153589 158.966611,98.5609349 157.067613,98.2804674 C155.022538,97.9590985 153.339733,97.1819699 153.339733,95.5050083 C153.339733,93.8280467 155.005008,92.7295492 157.067613,92.7295492 C159.130217,92.7295492 160.789649,93.9682805 160.789649,95.5050083 L160.205342,95.5050083 C160.205342,94.2896494 158.803005,93.3138564 157.067613,93.3138564 C155.33222,93.3138564 153.92404,94.1786311 153.92404,95.5050083 C153.92404,96.8313856 155.402337,97.4449082 157.067613,97.6961603 C159.28798,98.0292154 161.081803,98.8647746 161.081803,100.617696 C161.081803,102.370618 159.28798,103.539232 157.067613,103.539232 C154.847245,103.539232 153.047579,102.224541 153.047579,100.617696 L153.631886,100.617696 Z" id="Path" stroke="#38EBFF" fill="#38EBFF"></path>
                <path d="M178.114357,92.717857 C180.308563,92.7155002 182.287918,94.035751 183.128696,96.0624818 C183.969475,98.0892126 183.505931,100.422887 181.954392,101.974426 C180.402854,103.525964 178.069179,103.989508 176.042448,103.14873 C174.015718,102.307951 172.695467,100.328597 172.697824,98.1343907 C172.697824,95.1429249 175.122891,92.717857 178.114357,92.717857 Z M178.114357,102.972461 C180.071701,102.974818 181.837627,101.797562 182.588309,99.9898896 C183.338991,98.1822179 182.92651,96.1003227 181.543294,94.7154346 C180.160079,93.330546 178.078684,92.91555 176.270106,93.6640463 C174.461528,94.4125432 173.28213,96.1770452 173.28213,98.1343907 C173.280586,99.416987 173.789009,100.647583 174.695394,101.555065 C175.601779,102.462546 176.83176,102.972461 178.114357,102.972461 L178.114357,102.972461 Z" id="Shape" stroke="#38EBFF" fill="#38EBFF"></path>
                <polygon id="Path" stroke="#38EBFF" fill="#38EBFF" points="195.935726 92.951586 196.520033 92.951586 196.520033 102.738731 203.239566 102.738731 203.239566 103.323038 195.935726 103.323038"></polygon>
                <path d="M222.130217,92.951586 L222.714524,92.951586 L222.714524,99.3322204 C222.714524,101.655689 220.830981,103.539232 218.507513,103.539232 C216.184044,103.539232 214.300501,101.655689 214.300501,99.3322204 L214.300501,92.951586 L214.884808,92.951586 L214.884808,99.3322204 C214.884808,101.332985 216.506748,102.954925 218.507513,102.954925 C220.508277,102.954925 222.130217,101.332985 222.130217,99.3322204 L222.130217,92.951586 Z" id="Path" stroke="#38EBFF" fill="#38EBFF"></path>
                <polygon id="Path" stroke="#38EBFF" fill="#38EBFF" points="243.223706 92.951586 243.223706 93.5358932 239.133556 93.5358932 239.133556 103.323038 238.549249 103.323038 238.549249 93.5358932 234.459098 93.5358932 234.459098 92.951586"></polygon>
                <polygon id="Path" stroke="#38EBFF" fill="#38EBFF" points="255.114357 92.951586 255.698664 92.951586 255.698664 103.323038 255.114357 103.323038"></polygon>
                <path d="M273.520033,92.717857 C275.713709,92.717857 277.691271,94.0396156 278.530207,96.066534 C279.369143,98.0934529 278.904156,100.426168 277.352158,101.976495 C275.800159,103.526821 273.466943,103.989293 271.44093,103.148172 C269.414917,102.307051 268.095299,100.328065 268.097657,98.1343907 C268.097657,96.6968255 268.669132,95.318224 269.686192,94.3022599 C270.703252,93.2862958 272.082469,92.7163124 273.520033,92.717857 Z M273.520033,102.972461 C276.192022,102.972461 278.358097,100.806379 278.358097,98.1343907 C278.358097,95.4624018 276.192022,93.2963272 273.520033,93.2963272 C270.848045,93.2963272 268.681963,95.4624018 268.681963,98.1343907 C268.680417,99.4180002 269.189641,100.649483 270.097291,101.557133 C271.004941,102.464783 272.236424,102.974007 273.520033,102.972461 L273.520033,102.972461 Z" id="Shape" stroke="#38EBFF" fill="#38EBFF"></path>
                <polygon id="Path" stroke="#38EBFF" fill="#38EBFF" points="291.92571 93.9156928 291.92571 103.323038 291.341402 103.323038 291.341402 92.951586 291.92571 92.951586 299.171119 102.358932 299.171119 92.951586 299.755426 92.951586 299.755426 103.323038 299.171119 103.323038"></polygon>
                <path d="M312.668614,100.617696 C312.668614,101.920701 314.199499,102.954925 316.098497,102.954925 C317.997496,102.954925 319.534224,102.020033 319.534224,100.617696 C319.534224,99.2153589 317.997496,98.5609349 316.098497,98.2804674 C314.053422,97.9590985 312.376461,97.1819699 312.376461,95.5050083 C312.376461,93.8280467 314.041736,92.7295492 316.098497,92.7295492 C318.155259,92.7295492 319.826377,93.9682805 319.826377,95.5050083 L319.24207,95.5050083 C319.24207,94.2896494 317.839733,93.3138564 316.098497,93.3138564 C314.357262,93.3138564 312.960768,94.1786311 312.960768,95.5050083 C312.960768,96.8313856 314.433222,97.4449082 316.098497,97.6961603 C318.318865,98.0292154 320.118531,98.8647746 320.118531,100.617696 C320.118531,102.370618 318.318865,103.539232 316.098497,103.539232 C313.87813,103.539232 312.084307,102.224541 312.084307,100.617696 L312.668614,100.617696 Z" id="Path" stroke="#38EBFF" fill="#38EBFF"></path>
            </g>
        </g>
    </g>
</svg>