<?xml version="1.0" encoding="UTF-8"?>
<svg width="350px" height="105px" viewBox="0 0 350 105" version="1.1" xmlns="http://www.w3.org/2000/svg" xmlns:xlink="http://www.w3.org/1999/xlink">
    <title>Armyn Capital LOGO@1.5x</title>
    <defs>
        <linearGradient x1="2.46561561%" y1="45.934048%" x2="94.9056332%" y2="53.7862282%" id="linearGradient-1">
            <stop stop-color="#5F8298" offset="0%"></stop>
            <stop stop-color="#314B5F" offset="100%"></stop>
        </linearGradient>
    </defs>
    <g id="Page-1" stroke="none" stroke-width="1" fill="none" fill-rule="evenodd">
        <g id="Armyn-·-Landing-page" transform="translate(-185.000000, -422.000000)" fill-rule="nonzero">
            <g id="Light-Side" transform="translate(185.000000, 422.000000)">
                <g id="Armyn-Capital-LOGO@1.5x" transform="translate(0.000000, -0.000000)">
                    <g id="Group-2" transform="translate(198.708548, 92.711903)" fill="#314B5F" stroke="#314B5F">
                        <path d="M5.42500755,10.8448631 C2.97445255,10.84583 0.827817078,9.20308669 0.188354099,6.83743499 C-0.451108881,4.47178334 0.575553995,1.97126087 2.69286768,0.737484755 C4.81018137,-0.496291362 7.49183841,-0.156637446 9.23469034,1.5660604 L8.82567532,1.97507542 C6.9286676,0.107218166 3.87901674,0.122959818 2.00139254,2.01030092 C0.123768348,3.89764203 0.123768348,6.94733353 2.00139254,8.83467464 C3.87901674,10.7220158 6.9286676,10.7377574 8.82567532,8.86990013 L9.23469034,9.27891515 C8.22127078,10.2832884 6.85181625,10.8461929 5.42500755,10.8448631 Z" id="Path"></path>
                        <path d="M29.9191645,10.6111355 L29.2764266,10.6111355 L27.8916186,7.42666139 L22.1595651,7.42666139 L20.7922863,10.6111355 L20.1495484,10.6111355 L24.6428706,0.2396831 L25.40247,0.2396831 L29.9191645,10.6111355 Z M22.4400326,6.84235422 L27.6403665,6.84235422 L25.0401995,0.85320564 L22.4400326,6.84235422 Z" id="Shape"></path>
                        <path d="M42.3649074,6.88325572 L42.3649074,10.6111355 L41.7806002,10.6111355 L41.7806002,0.2396831 L46.3381962,0.2396831 C47.558189,0.188504604 48.708063,0.810202122 49.3333141,1.85904093 C49.9585652,2.90787973 49.9585652,4.21505909 49.3333141,5.26389789 C48.708063,6.31273673 47.558189,6.93443419 46.3381962,6.88325572 L42.3649074,6.88325572 Z M49.0844524,3.57023402 C49.0859956,2.8414091 48.7971596,2.14198702 48.2818014,1.62662881 C47.7664432,1.11127059 47.0670211,0.822434616 46.3381962,0.823977828 L42.3649074,0.823977828 L42.3649074,6.29894854 L46.3381962,6.29894854 C47.0649287,6.30361715 47.7634997,6.01819075 48.2790304,5.50595062 C48.7945612,4.99371049 49.0844524,4.2969815 49.0844524,3.57023402 Z" id="Shape"></path>
                        <polygon id="Path" points="61.8924533 0.2396831 62.4767605 0.2396831 62.4767605 10.6111355 61.8924533 10.6111355"></polygon>
                        <polygon id="Path" points="83.1203331 0.2396831 83.1203331 0.823990281 79.0301829 0.823990281 79.0301829 10.6111355 78.4458757 10.6111355 78.4458757 0.823990281 74.3557255 0.823990281 74.3557255 0.2396831"></polygon>
                        <path d="M102.244707,10.6111355 L101.625341,10.6111355 L100.23469,7.42666139 L94.5260093,7.42666139 L93.1528874,10.6111355 L92.5101495,10.6111355 L97.0093148,0.2396831 L97.7689141,0.2396831 L102.244707,10.6111355 Z M94.7655752,6.84235422 L99.9659091,6.84235422 L97.3657422,0.85320564 L94.7655752,6.84235422 Z" id="Shape"></path>
                        <polygon id="Path" points="114.106143 0.2396831 114.69045 0.2396831 114.69045 10.0268283 121.409983 10.0268283 121.409983 10.6111355 114.106143 10.6111355"></polygon>
                    </g>
                    <path d="M120.080968,66.4766277 L112.484975,55.7779633 C111.600015,55.8728289 110.710563,55.9196422 109.820534,55.918197 L100.863105,55.918197 L100.863105,66.4766277 L97.3572621,66.4766277 L97.3572621,33.1711185 L109.820534,33.1711185 C114.0665,33.1711185 117.395103,34.1858654 119.806344,36.2153589 C122.217585,38.2448525 123.423205,41.0358932 123.423205,44.5884808 C123.65966,49.4267939 120.500639,53.7789541 115.827212,55.0534224 L123.960768,66.4707846 L120.080968,66.4766277 Z M117.276294,50.7353923 C119.017529,49.2746244 119.890094,47.2276016 119.89399,44.5943239 C119.89399,41.9026155 119.021425,39.834168 117.276294,38.3889816 C115.531163,36.9437952 113.010851,36.2231497 109.715359,36.2270138 L100.863105,36.2270138 L100.863105,52.9207012 L109.715359,52.9207012 C113.010851,52.9207012 115.531163,52.1922649 117.276294,50.7353923 L117.276294,50.7353923 Z" id="Shape" fill="#314B5F"></path>
                    <polygon id="Path" fill="#314B5F" points="194.860601 33.1769616 194.860601 66.4824708 191.483306 66.4824708 191.483306 39.8380634 178.406511 62.2462437 176.741235 62.2462437 163.658598 39.9841402 163.658598 66.4766277 160.281302 66.4766277 160.281302 33.1711185 163.202838 33.1711185 177.629382 57.8464107 191.950751 33.1535893"></polygon>
                    <polygon id="Path" fill="#314B5F" points="245.66611 54.9657763 245.66611 66.4766277 242.195326 66.4766277 242.195326 54.9657763 228.873122 33.1769616 232.63606 33.1769616 244.053422 51.8747913 255.464942 33.1769616 258.970785 33.1769616"></polygon>
                    <polygon id="Path" fill="#314B5F" points="320.118531 33.1769616 320.118531 66.4824708 317.196995 66.4824708 295.805509 39.4582638 295.805509 66.4766277 292.299666 66.4766277 292.299666 33.1711185 295.221202 33.1711185 316.641903 60.1836394 316.641903 33.1769616"></polygon>
                    <polygon id="Path" fill="#314B5F" points="48.0592654 33.1769616 44.5884808 33.1769616 29.3672788 66.4766277 33.0308848 66.4766277 46.3005008 36.8405676 59.5701169 66.4766277 63.2863105 66.4766277"></polygon>
                    <polygon id="Path" fill="url(#linearGradient-1)" points="349.479967 99.6594324 329.157763 99.6594324 329.157763 96.7378965 346.558431 96.7378965 346.558431 2.92153589 2.92153589 2.92153589 2.92153589 96.7378965 189.426544 96.7378965 189.426544 99.6594324 0 99.6594324 0 0 349.479967 0"></polygon>
                </g>
            </g>
        </g>
    </g>
</svg>