<?xml version="1.0" encoding="UTF-8"?>
<svg width="13px" height="14px" viewBox="0 0 13 14" version="1.1" xmlns="http://www.w3.org/2000/svg" xmlns:xlink="http://www.w3.org/1999/xlink">
    <!-- Generator: sketchtool 56.1 (101010) - https://sketch.com -->
    <title>EA0EE4F1-EBCD-4983-901C-7E87584062F8</title>
    <desc>Created with sketchtool.</desc>
    <g id="form" stroke="none" stroke-width="1" fill="none" fill-rule="evenodd">
        <g id="styles" transform="translate(-979.000000, -1311.000000)" fill="#007AFF" fill-rule="nonzero">
            <g id="Group-3-Copy-3" transform="translate(905.000000, 1141.000000)">
                <path d="M75,183 L77.25,183 L77.25,180.75 L75,180.75 L75,183 Z M77.75,183 L80.25,183 L80.25,180.75 L77.75,180.75 L77.75,183 Z M75,180.25 L77.25,180.25 L77.25,177.75 L75,177.75 L75,180.25 Z M77.75,180.25 L80.25,180.25 L80.25,177.75 L77.75,177.75 L77.75,180.25 Z M75,177.25 L77.25,177.25 L77.25,175 L75,175 L75,177.25 Z M80.75,183 L83.25,183 L83.25,180.75 L80.75,180.75 L80.75,183 Z M77.75,177.25 L80.25,177.25 L80.25,175 L77.75,175 L77.75,177.25 Z M83.75,183 L86,183 L86,180.75 L83.75,180.75 L83.75,183 Z M80.75,180.25 L83.25,180.25 L83.25,177.75 L80.75,177.75 L80.75,180.25 Z M78,173.5 L78,171.25 C78,171.182291 77.9752607,171.123698 77.9257812,171.074219 C77.8763018,171.024739 77.8177087,171 77.75,171 L77.25,171 C77.1822913,171 77.1236982,171.024739 77.0742188,171.074219 C77.0247393,171.123698 77,171.182291 77,171.25 L77,173.5 C77,173.567709 77.0247393,173.626302 77.0742188,173.675781 C77.1236982,173.725261 77.1822913,173.75 77.25,173.75 L77.75,173.75 C77.8177087,173.75 77.8763018,173.725261 77.9257812,173.675781 C77.9752607,173.626302 78,173.567709 78,173.5 Z M83.75,180.25 L86,180.25 L86,177.75 L83.75,177.75 L83.75,180.25 Z M80.75,177.25 L83.25,177.25 L83.25,175 L80.75,175 L80.75,177.25 Z M83.75,177.25 L86,177.25 L86,175 L83.75,175 L83.75,177.25 Z M84,173.5 L84,171.25 C84,171.182291 83.9752607,171.123698 83.9257812,171.074219 C83.8763018,171.024739 83.8177087,171 83.75,171 L83.25,171 C83.1822913,171 83.1236982,171.024739 83.0742188,171.074219 C83.0247393,171.123698 83,171.182291 83,171.25 L83,173.5 C83,173.567709 83.0247393,173.626302 83.0742188,173.675781 C83.1236982,173.725261 83.1822913,173.75 83.25,173.75 L83.75,173.75 C83.8177087,173.75 83.8763018,173.725261 83.9257812,173.675781 C83.9752607,173.626302 84,173.567709 84,173.5 Z M87,173 L87,183 C87,183.270835 86.9010427,183.505207 86.703125,183.703125 C86.5052073,183.901043 86.2708347,184 86,184 L75,184 C74.7291653,184 74.4947927,183.901043 74.296875,183.703125 C74.0989573,183.505207 74,183.270835 74,183 L74,173 C74,172.729165 74.0989573,172.494793 74.296875,172.296875 C74.4947927,172.098957 74.7291653,172 75,172 L76,172 L76,171.25 C76,170.906248 76.1223946,170.61198 76.3671875,170.367188 C76.6119804,170.122395 76.9062483,170 77.25,170 L77.75,170 C78.0937517,170 78.3880196,170.122395 78.6328125,170.367188 C78.8776054,170.61198 79,170.906248 79,171.25 L79,172 L82,172 L82,171.25 C82,170.906248 82.1223946,170.61198 82.3671875,170.367188 C82.6119804,170.122395 82.9062483,170 83.25,170 L83.75,170 C84.0937517,170 84.3880196,170.122395 84.6328125,170.367188 C84.8776054,170.61198 85,170.906248 85,171.25 L85,172 L86,172 C86.2708347,172 86.5052073,172.098957 86.703125,172.296875 C86.9010427,172.494793 87,172.729165 87,173 Z" id="calendar"></path>
            </g>
        </g>
    </g>
</svg>