<?xml version="1.0" encoding="utf-8"?><svg width="133" height="117" viewBox="0 0 133 117" xmlns="http://www.w3.org/2000/svg" xmlns:xlink="http://www.w3.org/1999/xlink"><svg width="12" height="21" fill="none" viewBox="0 0 12 21" id="arrow-back" x="44" y="95" xmlns="http://www.w3.org/2000/svg"><path d="M11.835 2.526l-1.78-1.77-9.89 9.9 9.9 9.9 1.77-1.77-8.13-8.13 8.13-8.13z" fill="#424242"/></svg><svg width="15" height="10" fill="none" viewBox="0 0 15 10" id="arrow-down-green" x="117" y="42" xmlns="http://www.w3.org/2000/svg"><path d="M13.238 0L7.5 6.107 1.763 0 0 1.88l7.5 8 7.5-8L13.238 0z" fill="#118657"/></svg><svg width="15" height="10" fill="none" viewBox="0 0 15 10" id="arrow-down-white" x="117" y="32" xmlns="http://www.w3.org/2000/svg"><path d="M13.238 0L7.5 6.107 1.763 0 0 1.88l7.5 8 7.5-8L13.238 0z" fill="#fff"/></svg><svg width="12" height="21" fill="none" viewBox="0 0 12 21" id="arrow-forward" x="56" y="95" xmlns="http://www.w3.org/2000/svg"><path d="M.165 18.786l1.77 1.77 9.9-9.9-9.9-9.9-1.77 1.77 8.13 8.13-8.13 8.13z" fill="#424242"/></svg><svg width="6" height="10" fill="none" viewBox="0 0 6 10" id="arrow-right" x="123" y="52" xmlns="http://www.w3.org/2000/svg"><path d="M0 8.264l.811.811L5.35 4.538.81 0 0 .811l3.726 3.726L0 8.264z" fill="#424242"/></svg><svg width="6" height="10" fill="none" viewBox="0 0 6 10" id="arrow-right-green" x="117" y="52" xmlns="http://www.w3.org/2000/svg"><path d="M0 8.264l.811.811L5.35 4.538.81 0 0 .811l3.726 3.726L0 8.264z" fill="#00A767"/></svg><svg width="3" height="6" fill="none" viewBox="0 0 3 6" id="chevron-right-black" x="129" y="52" xmlns="http://www.w3.org/2000/svg"><path d="M0 5.396V.604A.25.25 0 01.427.427l2.396 2.396a.25.25 0 010 .354L.427 5.573A.25.25 0 010 5.396z" fill="#424242"/></svg><svg width="3" height="6" fill="none" viewBox="0 0 3 6" id="chevron-right-green" x="117" y="62" xmlns="http://www.w3.org/2000/svg"><path d="M0 5.396V.604A.25.25 0 01.427.427l2.396 2.396a.25.25 0 010 .354L.427 5.573A.25.25 0 010 5.396z" fill="#00A76A"/></svg><svg width="3" height="6" fill="none" viewBox="0 0 3 6" id="chevron-right-white" x="120" y="62" xmlns="http://www.w3.org/2000/svg"><path d="M0 5.396V.604A.25.25 0 01.427.427l2.396 2.396a.25.25 0 010 .354L.427 5.573A.25.25 0 010 5.396z" fill="#FFF"/></svg><svg width="22" height="22" fill="none" viewBox="0 0 22 22" id="close" x="22" y="95" xmlns="http://www.w3.org/2000/svg"><path d="M21.5 2.615L19.385.5 11 8.885 2.615.5.5 2.615 8.885 11 .5 19.385 2.615 21.5 11 13.115l8.385 8.385 2.115-2.115L13.115 11 21.5 2.615z" fill="#fff"/></svg><svg width="24" height="24" fill="none" viewBox="0 0 24 24" id="close-grey" x="27" y="66" xmlns="http://www.w3.org/2000/svg"><path d="M19 6.41L17.59 5 12 10.59 6.41 5 5 6.41 10.59 12 5 17.59 6.41 19 12 13.41 17.59 19 19 17.59 13.41 12 19 6.41z" fill="#C6C6C6"/></svg><svg width="27" height="29" fill="none" viewBox="0 0 27 29" id="download" y="66" xmlns="http://www.w3.org/2000/svg"><path fill-rule="evenodd" clip-rule="evenodd" d="M0 20.2v3a5 5 0 005 5h16a5 5 0 005-5v-3h-1.5v3a3.5 3.5 0 01-3.5 3.5H5a3.5 3.5 0 01-3.5-3.5v-3H0z" fill="#00A76A"/><path fill-rule="evenodd" clip-rule="evenodd" d="M0 20h1.9v3.2a3.3 3.3 0 003.3 3.3h16a3.3 3.3 0 003.3-3.3V20h1.9v3.2a5.2 5.2 0 01-5.2 5.2h-16A5.2 5.2 0 010 23.2V20zm.4.4v2.8A4.8 4.8 0 005.2 28h16a4.8 4.8 0 004.8-4.8v-2.8h-1.1v2.8a3.7 3.7 0 01-3.7 3.7h-16a3.7 3.7 0 01-3.7-3.7v-2.8H.4z" fill="#00A76A"/><path d="M22.352 12.534l-1.36-1.364-6.353 6.353V0h-1.928v17.523l-6.355-6.355L5 12.532l8.675 8.682 8.677-8.68z" fill="#00A76A"/></svg><svg width="16" height="16" fill="none" viewBox="0 0 16 16" id="external-link-black" x="117" y="16" xmlns="http://www.w3.org/2000/svg"><path d="M12.286 9.143h-.572a.277.277 0 00-.205.08.277.277 0 00-.08.205v2.858c0 .393-.14.729-.42 1.008-.28.28-.616.42-1.009.42H2.571c-.392 0-.729-.14-1.009-.42-.28-.28-.42-.616-.42-1.008V4.857c0-.393.14-.729.42-1.009.28-.28.617-.42 1.01-.42h6.285a.278.278 0 00.206-.08.278.278 0 00.08-.205V2.57a.278.278 0 00-.08-.205.278.278 0 00-.206-.08H2.571c-.708 0-1.314.251-1.817.754A2.477 2.477 0 000 4.857v7.429c0 .708.251 1.314.754 1.816a2.477 2.477 0 001.817.755h7.43c.707 0 1.313-.252 1.816-.755a2.476 2.476 0 00.755-1.816V9.429a.278.278 0 00-.08-.206.278.278 0 00-.206-.08z" fill="#424242"/><path d="M15.83 1.313a.55.55 0 00-.402-.17h-4.571a.549.549 0 00-.402.17.549.549 0 00-.17.401.55.55 0 00.17.402l1.572 1.572-5.822 5.821a.282.282 0 000 .41l1.018 1.019a.282.282 0 00.41 0l5.822-5.822 1.572 1.572c.113.113.247.17.401.17a.55.55 0 00.402-.17.549.549 0 00.17-.402V1.714a.55.55 0 00-.17-.401z" fill="#424242"/></svg><svg width="16" height="16" fill="none" viewBox="0 0 16 16" id="external-link-green" x="87" y="95" xmlns="http://www.w3.org/2000/svg"><path d="M12.286 9.143h-.572a.277.277 0 00-.205.08.277.277 0 00-.08.205v2.858c0 .393-.14.729-.42 1.008-.28.28-.616.42-1.009.42H2.571c-.392 0-.729-.14-1.009-.42-.28-.28-.42-.616-.42-1.008V4.857c0-.393.14-.729.42-1.009.28-.28.617-.42 1.01-.42h6.285a.278.278 0 00.206-.08.278.278 0 00.08-.205V2.57a.278.278 0 00-.08-.205.278.278 0 00-.206-.08H2.571c-.708 0-1.314.251-1.817.754A2.477 2.477 0 000 4.857v7.429c0 .708.251 1.314.754 1.816a2.477 2.477 0 001.817.755h7.43c.707 0 1.313-.252 1.816-.755a2.476 2.476 0 00.755-1.816V9.429a.278.278 0 00-.08-.206.278.278 0 00-.206-.08z" fill="#00A767"/><path d="M15.83 1.313a.55.55 0 00-.402-.17h-4.571a.549.549 0 00-.402.17.549.549 0 00-.17.401.55.55 0 00.17.402l1.572 1.572-5.822 5.821a.282.282 0 000 .41l1.018 1.019a.282.282 0 00.41 0l5.822-5.822 1.572 1.572c.113.113.247.17.401.17a.55.55 0 00.402-.17.549.549 0 00.17-.402V1.714a.55.55 0 00-.17-.401z" fill="#00A767"/></svg><svg width="16" height="16" fill="none" viewBox="0 0 16 16" id="external-link-white" x="117" xmlns="http://www.w3.org/2000/svg"><path d="M12.286 9.143h-.572a.277.277 0 00-.205.08.277.277 0 00-.08.205v2.858c0 .393-.14.729-.42 1.008-.28.28-.616.42-1.009.42H2.571c-.392 0-.729-.14-1.009-.42-.28-.28-.42-.616-.42-1.008V4.857c0-.393.14-.729.42-1.009.28-.28.617-.42 1.01-.42h6.285a.278.278 0 00.206-.08.278.278 0 00.08-.205V2.57a.278.278 0 00-.08-.205.278.278 0 00-.206-.08H2.571c-.708 0-1.314.251-1.817.754A2.477 2.477 0 000 4.857v7.429c0 .708.251 1.314.754 1.816a2.477 2.477 0 001.817.755h7.43c.707 0 1.313-.252 1.816-.755a2.476 2.476 0 00.755-1.816V9.429a.278.278 0 00-.08-.206.278.278 0 00-.206-.08z" fill="#fff"/><path d="M15.83 1.313a.55.55 0 00-.402-.17h-4.571a.549.549 0 00-.402.17.549.549 0 00-.17.401.55.55 0 00.17.402l1.572 1.572-5.822 5.821a.282.282 0 000 .41l1.018 1.019a.282.282 0 00.41 0l5.822-5.822 1.572 1.572c.113.113.247.17.401.17a.55.55 0 00.402-.17.549.549 0 00.17-.402V1.714a.55.55 0 00-.17-.401z" fill="#fff"/></svg><svg width="11" height="22" fill="none" viewBox="0 0 11 22" id="facebook" x="106" xmlns="http://www.w3.org/2000/svg"><mask id="pa" fill="#fff"><path d="M8.992 3.653H11V.155C10.653.107 9.462 0 8.074 0 5.18 0 3.195 1.821 3.195 5.17v3.08H0v3.91h3.195V22h3.918v-9.839h3.066l.486-3.91H7.112V5.557c0-1.13.305-1.904 1.88-1.904z"/></mask><path d="M8.992 3.653H11V.155C10.653.107 9.462 0 8.074 0 5.18 0 3.195 1.821 3.195 5.17v3.08H0v3.91h3.195V22h3.918v-9.839h3.066l.486-3.91H7.112V5.557c0-1.13.305-1.904 1.88-1.904z" fill="#fff"/><path d="M11 3.653v21.333h21.333V3.653H11zm0-3.498h21.333v-18.6l-18.425-2.534L11 .155zM3.195 8.25v21.333H24.53V8.25H3.195zM0 8.25v-21.333h-21.333V8.25H0zm0 3.91h-21.333v21.334H0V12.16zm3.195 0H24.53V-9.172H3.195v21.334zm0 9.84h-21.333v21.333H3.195V22zm3.918 0v21.333h21.333V22H7.113zm0-9.839V-9.172h-21.334v21.333H7.113zm3.066 0v21.334h18.843l2.327-18.699-21.17-2.635zm.486-3.91l21.17 2.635 2.984-23.968H10.665V8.25zm-3.553 0h-21.334v21.333H7.112V8.251zm0-2.694l-21.334-.017v.017H7.112zm1.88 19.43H11V-17.68H8.992v42.666zM32.333 3.652V.155h-42.666v3.498h42.666zM13.908-20.98c-1.44-.198-3.614-.354-5.834-.354v42.666a6.76 6.76 0 01.498.017l.068.005h-.003c-.008-.002-.022-.003-.042-.005a10.986 10.986 0 01-.503-.06l5.816-42.27zm-5.834-.354c-5.962 0-13.103 1.967-18.749 7.717-5.634 5.74-7.463 12.884-7.463 18.785h42.667c0 2.553-.837 7.113-4.756 11.105-3.93 4.003-8.632 5.06-11.699 5.06v-42.667zM-18.138 5.169V8.25h42.667V5.17h-42.667zM3.195-13.083H0v42.666h3.195v-42.666zM-21.333 8.25v3.91h42.666V8.25h-42.666zM0 33.494h3.195V-9.173H0v42.667zM-18.138 12.16V22h42.667v-9.84h-42.667zM3.195 43.334h3.918V.667H3.195v42.666zM28.446 22v-9.839H-14.22V22h42.667zM7.113 33.495h3.066V-9.172H7.113v42.667zm24.236-18.699l.486-3.91-42.34-5.27-.486 3.91 42.34 5.27zM10.665-13.082H7.112v42.666h3.553v-42.666zM28.445 8.25V5.557H-14.22V8.25h42.666zm0-2.677c0 .263.23 6.352-4.453 12.092-5.509 6.753-12.74 7.32-15 7.32V-17.68c-3.835 0-12.006.953-18.061 8.376-5.228 6.41-5.151 13.45-5.152 14.844l42.666.034z" fill="#fff" mask="url(#pa)"/></svg><svg width="19" height="19" fill="none" viewBox="0 0 19 19" id="instagram" x="68" y="95" xmlns="http://www.w3.org/2000/svg"><path d="M9.293 4.629c-2.554 0-4.614 2.175-4.614 4.871 0 2.696 2.06 4.871 4.614 4.871s4.614-2.175 4.614-4.871c0-2.696-2.06-4.871-4.614-4.871zm0 8.038c-1.65 0-3-1.42-3-3.167 0-1.747 1.345-3.167 3-3.167 1.654 0 3 1.42 3 3.167 0 1.747-1.35 3.167-3 3.167zm5.879-8.238c0 .632-.482 1.137-1.077 1.137-.598 0-1.076-.51-1.076-1.137s.482-1.136 1.076-1.136c.595 0 1.076.509 1.076 1.136zm3.055 1.154c-.068-1.522-.397-2.87-1.453-3.981C15.722.49 14.444.143 13.004.067c-1.487-.09-5.94-.09-7.426 0-1.437.072-2.714.42-3.77 1.53C.75 2.708.426 4.057.354 5.578c-.084 1.569-.084 6.27 0 7.84.068 1.522.397 2.87 1.454 3.98 1.056 1.111 2.329 1.459 3.77 1.535 1.486.09 5.94.09 7.425 0 1.442-.072 2.719-.42 3.77-1.535 1.053-1.11 1.382-2.458 1.454-3.98.085-1.57.085-6.267 0-7.835zm-1.92 9.518a3.127 3.127 0 01-1.71 1.806c-1.184.496-3.995.381-5.304.381-1.31 0-4.124.11-5.305-.381-.787-.331-1.393-.971-1.71-1.806-.47-1.251-.362-4.219-.362-5.601 0-1.382-.104-4.354.361-5.6a3.127 3.127 0 011.711-1.807c1.185-.496 3.996-.381 5.305-.381 1.309 0 4.124-.11 5.304.381.787.331 1.394.971 1.71 1.806.47 1.251.362 4.219.362 5.601 0 1.382.109 4.354-.361 5.6z" fill="#fff"/></svg><svg width="28" height="18" fill="none" viewBox="0 0 28 18" id="menu" x="68" y="38" xmlns="http://www.w3.org/2000/svg"><path fill-rule="evenodd" clip-rule="evenodd" d="M.5 3V0h27v3H.5zm0 7.5h27v-3H.5v3zm0 7.5h27v-3H.5v3z" fill="#fff"/></svg><svg width="68" height="66" fill="none" viewBox="0 0 68 66" id="play-icon" xmlns="http://www.w3.org/2000/svg"><path fill-rule="evenodd" clip-rule="evenodd" d="M33.918 63.427c17.364 0 31.44-13.753 31.44-30.718S51.283 1.991 33.919 1.991c-17.365 0-31.441 13.753-31.441 30.718s14.076 30.718 31.44 30.718zm0 1.691c18.32 0 33.171-14.51 33.171-32.409 0-17.9-14.851-32.41-33.171-32.41S.746 14.81.746 32.71c0 17.899 14.852 32.41 33.172 32.41z" fill="#F4F4F4"/><path d="M49.464 30.915a1.409 1.409 0 010 2.46L27.99 45.381a1.41 1.41 0 01-2.097-1.23V20.14a1.409 1.409 0 012.097-1.23l21.475 12.005z" fill="#F4F4F4" stroke="#F4F4F4" stroke-width=".564"/></svg><svg width="38" height="38" fill="none" viewBox="0 0 38 38" id="search" x="68" xmlns="http://www.w3.org/2000/svg"><path fill-rule="evenodd" clip-rule="evenodd" d="M25.177 23.698h1.646l10.396 10.417-3.104 3.104-10.417-10.396v-1.646l-.563-.583a13.482 13.482 0 01-8.812 3.27C6.843 27.865.78 21.803.78 14.324.781 6.843 6.844.78 14.323.78c7.48 0 13.542 6.063 13.542 13.542 0 3.354-1.23 6.437-3.271 8.812l.583.563zm-20.23-9.375a9.362 9.362 0 009.376 9.375 9.362 9.362 0 009.375-9.375 9.362 9.362 0 00-9.375-9.375 9.362 9.362 0 00-9.375 9.375z" fill="#000" fill-opacity=".54"/></svg><svg width="22" height="22" fill="none" viewBox="0 0 22 22" id="search-mobile" y="95" xmlns="http://www.w3.org/2000/svg"><path fill-rule="evenodd" clip-rule="evenodd" d="M14.622 13.786h.93l5.876 5.887-1.754 1.755-5.888-5.876v-.93l-.318-.33a7.62 7.62 0 01-4.981 1.849 7.654 7.654 0 110-15.308 7.654 7.654 0 017.654 7.654 7.62 7.62 0 01-1.849 4.98l.33.319zm-11.434-5.3a5.292 5.292 0 005.299 5.3 5.292 5.292 0 005.299-5.3 5.292 5.292 0 00-5.3-5.298 5.292 5.292 0 00-5.298 5.299z" fill="#000" fill-opacity=".54"/></svg><svg width="20" height="18" fill="none" viewBox="0 0 20 18" id="twitter" x="73" y="66" xmlns="http://www.w3.org/2000/svg"><path d="M17.95 4.677c.012.18.012.36.012.54 0 5.482-4.004 11.799-11.323 11.799-2.255 0-4.35-.68-6.112-1.862.32.039.628.052.961.052a7.77 7.77 0 004.941-1.772c-1.75-.039-3.216-1.233-3.721-2.876.246.038.493.064.751.064.358 0 .715-.051 1.048-.141-1.824-.385-3.192-2.054-3.192-4.07v-.052c.53.309 1.146.501 1.8.527C2.041 6.14 1.34 4.87 1.34 3.432c0-.77.197-1.476.542-2.093 1.96 2.517 4.904 4.16 8.207 4.34a4.87 4.87 0 01-.099-.95c0-2.286 1.774-4.147 3.98-4.147 1.146 0 2.181.5 2.908 1.31.9-.18 1.762-.527 2.526-1.002a4.11 4.11 0 01-1.75 2.285c.801-.09 1.578-.32 2.292-.642a8.76 8.76 0 01-1.996 2.144z" fill="#fff"/></svg><svg width="22" height="18" fill="none" viewBox="0 0 22 18" id="youtube" x="51" y="66" xmlns="http://www.w3.org/2000/svg"><path d="M21.437 3.153c-.247-1.012-.974-1.81-1.898-2.08-1.673-.491-8.385-.491-8.385-.491s-6.712 0-8.386.491c-.923.27-1.65 1.068-1.898 2.08C.422 4.988.422 8.815.422 8.815s0 3.828.448 5.663c.247 1.012.975 1.776 1.898 2.046 1.674.492 8.386.492 8.386.492s6.712 0 8.385-.492c.924-.27 1.651-1.034 1.898-2.046.448-1.835.448-5.663.448-5.663s0-3.827-.448-5.662zM8.959 12.291V5.34l5.61 3.475-5.61 3.475z" fill="#fff"/></svg></svg>